<svg xmlns="http://www.w3.org/2000/svg" xmlns:xlink="http://www.w3.org/1999/xlink" viewBox="0 0 550 520"><defs><linearGradient id="linear-gradient1" x1="185.2" y1="-6976.2" x2="185.2" y2="-7014.2" gradientTransform="matrix(.98 .21 .21 -.98 1468.4 -6843.2)" gradientUnits="userSpaceOnUse"><stop offset="0" stop-color="#fff0b2" stop-opacity=".5"/><stop offset="1" stop-color="#fff0b2" stop-opacity="0"/><stop offset="1" stop-color="#fff" stop-opacity="0"/></linearGradient><linearGradient id="linear-gradient1-2" x1="185.2" y1="-6981.8" x2="185.2" y2="-7008.6" gradientTransform="matrix(.98 .21 .21 -.98 1468.4 -6843.2)" gradientUnits="userSpaceOnUse"><stop offset="0" stop-color="#ffe380" stop-opacity=".5"/><stop offset="1" stop-color="#fff0b2" stop-opacity="0"/><stop offset="1" stop-color="#fff" stop-opacity="0"/></linearGradient><linearGradient id="linear-gradient1-3" x1="185.2" y1="34.3" x2="185.2" y2="45.7" gradientTransform="rotate(12.1 180.5 26.9)" gradientUnits="userSpaceOnUse"><stop offset="0" stop-color="#ff7e66"/><stop offset="1" stop-color="#ffc7c7"/></linearGradient><linearGradient id="linear-gradient1-4" x1="185.2" y1="25.7" x2="185.2" y2="45.7" gradientTransform="rotate(12.1 180.5 26.9)" gradientUnits="userSpaceOnUse"><stop offset="0" stop-color="#ffaf73" stop-opacity=".6"/><stop offset=".7" stop-color="#ffc7c7" stop-opacity=".6"/><stop offset="1" stop-color="#fffbfb" stop-opacity=".6"/></linearGradient><linearGradient id="linear-gradient1-5" x1="59.9" y1="189.5" x2="171" y2="300.6" gradientUnits="userSpaceOnUse"><stop offset="0" stop-color="#b3bcd9"/><stop offset="1" stop-color="#79a6cf"/></linearGradient><linearGradient id="linear-gradient1-6" x1="83.1" y1="323.5" x2="62.1" y2="323.5" gradientUnits="userSpaceOnUse"><stop offset="0" stop-color="#ffa3a7"/><stop offset="1" stop-color="#6554c0"/></linearGradient><linearGradient id="linear-gradient1-7" x1="59.6" y1="337.8" x2="85.8" y2="309.1" gradientUnits="userSpaceOnUse"><stop offset="0" stop-color="#e6eef3"/><stop offset="1" stop-color="#f2f6f9"/></linearGradient><linearGradient id="linear-gradient1-8" x1="57.4" y1="158.2" x2="155.4" y2="158.2" xlink:href="#linear-gradient1-7"/><linearGradient id="linear-gradient1-9" x1="57.4" y1="181.8" x2="112.8" y2="181.8" xlink:href="#linear-gradient1-7"/><linearGradient id="linear-gradient1-10" x1="57.4" y1="170" x2="166.3" y2="170" xlink:href="#linear-gradient1-7"/><linearGradient id="linear-gradient1-11" x1="57.4" y1="300.3" x2="164.8" y2="300.3" xlink:href="#linear-gradient1-7"/><linearGradient id="linear-gradient1-12" x1="274.8" y1="258.8" x2="274.8" y2="183.7" gradientUnits="userSpaceOnUse"><stop offset="0" stop-color="#aec4d5"/><stop offset="1" stop-color="#7896ad"/></linearGradient><linearGradient id="linear-gradient1-13" x1="240.3" y1="249.5" x2="290" y2="344.7" gradientUnits="userSpaceOnUse"><stop offset="0" stop-color="#addbff"/><stop offset="1" stop-color="#8594ff"/></linearGradient><linearGradient id="linear-gradient1-14" x1="216.7" y1="158.2" x2="319.5" y2="158.2" xlink:href="#linear-gradient1-7"/><linearGradient id="linear-gradient1-15" x1="216.7" y1="170" x2="320.9" y2="170" xlink:href="#linear-gradient1-7"/><linearGradient id="linear-gradient1-16" x1="216.7" y1="373.3" x2="310.9" y2="373.3" xlink:href="#linear-gradient1-7"/><linearGradient id="linear-gradient1-17" x1="216.7" y1="409.8" x2="283.7" y2="409.8" xlink:href="#linear-gradient1-7"/><linearGradient id="linear-gradient1-18" x1="216.7" y1="385.9" x2="314.7" y2="385.9" xlink:href="#linear-gradient1-7"/><linearGradient id="linear-gradient1-19" x1="216.7" y1="397.7" x2="325.6" y2="397.7" xlink:href="#linear-gradient1-7"/><linearGradient id="linear-gradient1-20" x1="238.4" y1="314.8" x2="311.2" y2="314.8" gradientUnits="userSpaceOnUse"><stop offset="0" stop-color="#fff" stop-opacity=".5"/><stop offset="1" stop-color="#fff" stop-opacity=".2"/></linearGradient><linearGradient id="linear-gradient1-21" x1="376.1" y1="167.2" x2="490.7" y2="167.2" xlink:href="#linear-gradient1-7"/><linearGradient id="linear-gradient1-22" x1="214.5" y1="134.8" x2="186.4" y2="106.7" gradientUnits="userSpaceOnUse"><stop offset="0" stop-color="#35425f"/><stop offset="1" stop-color="#111219"/></linearGradient><linearGradient id="linear-gradient1-23" x1="306.4" y1="201" x2="193" y2="79.5" gradientUnits="userSpaceOnUse"><stop offset="0" stop-color="#4469d7"/><stop offset="1" stop-color="#ffc2d1"/></linearGradient><linearGradient id="linear-gradient1-24" x1="396.4" y1="221.4" x2="213.2" y2="126.7" gradientUnits="userSpaceOnUse"><stop offset="0" stop-color="#5c85ff"/><stop offset="1" stop-color="#ffc2d1"/></linearGradient><linearGradient id="linear-gradient1-25" x1="192.9" y1="183.1" x2="271.9" y2="183.1" xlink:href="#linear-gradient1-7"/><linearGradient id="linear-gradient1-26" x1="155.5" y1="80" x2="289.7" y2="80" gradientUnits="userSpaceOnUse"><stop offset="0" stop-color="#d6e2dd"/><stop offset=".2" stop-color="#d3e0dc"/><stop offset=".4" stop-color="#cadbd9"/><stop offset=".6" stop-color="#bad3d4"/><stop offset=".7" stop-color="#a4c7cd"/><stop offset=".8" stop-color="#88b7c4"/><stop offset="1" stop-color="#65a4b9"/><stop offset="1" stop-color="#589db5"/></linearGradient><linearGradient id="linear-gradient1-27" x1="144.1" y1="96.2" x2="144.1" y2="51.9" gradientUnits="userSpaceOnUse"><stop offset="0" stop-color="#589db5"/><stop offset="1" stop-color="#d6e2dd"/></linearGradient><linearGradient id="linear-gradient1-28" x1="171.1" y1="112.6" x2="171.1" y2="94.5" xlink:href="#linear-gradient1-22"/><linearGradient id="linear-gradient1-29" x1="194.2" y1="109" x2="181.2" y2="113.3" xlink:href="#linear-gradient1-27"/><linearGradient id="linear-gradient1-30" x1="164.9" y1="103.1" x2="152" y2="108" xlink:href="#linear-gradient1-27"/><linearGradient id="linear-gradient1-31" x1="185" y1="137.2" x2="156.6" y2="108.8" xlink:href="#linear-gradient1-22"/><linearGradient id="linear-gradient1-32" x1="404.6" y1="288.2" x2="424.6" y2="337.5" gradientUnits="userSpaceOnUse"><stop offset="0" stop-color="#856cbb"/><stop offset="1" stop-color="#111219"/></linearGradient><linearGradient id="linear-gradient1-33" x1="409.9" y1="296.1" x2="409.9" y2="330.4" gradientUnits="userSpaceOnUse"><stop offset="0" stop-color="#ffa3a7"/><stop offset="1" stop-color="#f66"/></linearGradient><linearGradient id="linear-gradient1-34" x1="396.5" y1="504.7" x2="396.5" y2="447.7" xlink:href="#linear-gradient1-33"/><linearGradient id="linear-gradient1-35" x1="413" y1="394.2" x2="413" y2="333.3" gradientUnits="userSpaceOnUse"><stop offset="0" stop-color="#35425f"/><stop offset="1" stop-color="#51588d"/></linearGradient><linearGradient id="linear-gradient1-36" x1="406" y1="323.2" x2="413.6" y2="318.9" gradientUnits="userSpaceOnUse"><stop offset="0" stop-color="#332858"/><stop offset="1" stop-color="#d641ad"/></linearGradient><linearGradient id="linear-gradient1-37" x1="413.8" y1="320.9" x2="406.7" y2="327" gradientUnits="userSpaceOnUse"><stop offset="0" stop-color="#a156be"/><stop offset="1" stop-color="#d641ad"/></linearGradient><linearGradient id="linear-gradient1-38" x1="416.6" y1="328.7" x2="416.6" y2="337.6" gradientUnits="userSpaceOnUse"><stop offset="0" stop-color="#d838ba"/><stop offset="1" stop-color="#f66"/></linearGradient><linearGradient id="linear-gradient1-39" x1="414.3" y1="447.6" x2="414.3" y2="333.8" gradientUnits="userSpaceOnUse"><stop offset="0" stop-color="#026aa7"/><stop offset="1" stop-color="#29cce5"/></linearGradient><linearGradient id="linear-gradient1-40" x1="429.4" y1="390.3" x2="439.8" y2="379.8" xlink:href="#linear-gradient1-33"/><linearGradient id="linear-gradient1-41" x1="403.4" y1="504.7" x2="403.4" y2="447.7" xlink:href="#linear-gradient1-33"/><linearGradient id="linear-gradient1-42" x1="365.4" y1="412" x2="336.6" y2="454.9" gradientUnits="userSpaceOnUse"><stop offset="0" stop-color="#edf0f2"/><stop offset="1" stop-color="#6a7c8b"/></linearGradient><linearGradient id="linear-gradient1-43" x1="328.4" y1="416.5" x2="335.5" y2="431.6" xlink:href="#linear-gradient1-42"/><linearGradient id="linear-gradient1-44" x1="315.5" y1="405.8" x2="337.6" y2="464.2" gradientUnits="userSpaceOnUse"><stop offset="0" stop-color="#fff"/><stop offset="1" stop-color="#e1e1e1"/></linearGradient><linearGradient id="linear-gradient1-45" x1="330.9" y1="446.3" x2="330.8" y2="440.9" gradientUnits="userSpaceOnUse"><stop offset="0" stop-color="#002f4b"/><stop offset="1" stop-color="#6fc2ff"/></linearGradient><linearGradient id="linear-gradient1-46" x1="317.8" y1="472" x2="348.7" y2="472" gradientUnits="userSpaceOnUse"><stop offset=".1" stop-color="#009ef9"/><stop offset=".7" stop-color="#004988"/><stop offset="1" stop-color="#00a1ff"/></linearGradient><linearGradient id="linear-gradient1-47" x1="355.5" y1="511.2" x2="333" y2="474.6" gradientUnits="userSpaceOnUse"><stop offset="0" stop-color="#4d6072"/><stop offset="1" stop-color="#94a5af"/></linearGradient><linearGradient id="linear-gradient1-48" x1="387.7" y1="476.6" x2="354.8" y2="534.1" gradientUnits="userSpaceOnUse"><stop offset="0" stop-color="#fff"/><stop offset=".6" stop-color="#94a5af"/></linearGradient><linearGradient id="linear-gradient1-49" x1="-7942.9" y1="2721.4" x2="-7937.3" y2="2721.4" gradientTransform="rotate(-67.7 -5506 -4496) skewX(1.1)" xlink:href="#linear-gradient1-45"/><linearGradient id="linear-gradient1-50" x1="325.6" y1="454.9" x2="316.1" y2="460.3" gradientUnits="userSpaceOnUse"><stop offset="0" stop-color="#6d56be"/><stop offset=".6" stop-color="#d641ad"/></linearGradient><linearGradient id="linear-gradient1-51" x1="315.2" y1="456.6" x2="314.2" y2="458.3" gradientUnits="userSpaceOnUse"><stop offset="0" stop-color="#6d56be"/><stop offset="1" stop-color="#d641ad"/></linearGradient><linearGradient id="linear-gradient1-52" x1="332.9" y1="490.2" x2="315.6" y2="484.9" gradientUnits="userSpaceOnUse"><stop offset="0" stop-color="#c0c6cb"/><stop offset="1" stop-color="#fff"/></linearGradient><linearGradient id="linear-gradient1-53" x1="321.7" y1="506.3" x2="318.9" y2="523.9" gradientUnits="userSpaceOnUse"><stop offset="0" stop-color="#4d6072"/><stop offset=".6" stop-color="#94a5af"/></linearGradient><linearGradient id="linear-gradient1-54" x1="329.6" y1="514.5" x2="321.3" y2="514.5" gradientUnits="userSpaceOnUse"><stop offset="0" stop-color="#ced4da"/><stop offset="1" stop-color="#eee"/></linearGradient><linearGradient id="linear-gradient1-55" x1="330.7" y1="513.5" x2="342.5" y2="518.4" gradientUnits="userSpaceOnUse"><stop offset="0" stop-color="#fff"/><stop offset="1" stop-color="#b6c6cf"/></linearGradient><linearGradient id="linear-gradient1-56" x1="356.7" y1="510" x2="378.7" y2="490.2" xlink:href="#linear-gradient1-47"/><linearGradient id="linear-gradient1-57" x1="372.8" y1="504.7" x2="347.4" y2="501.3" xlink:href="#linear-gradient1-47"/><linearGradient id="linear-gradient1-58" x1="347.8" y1="514.2" x2="367.2" y2="519.7" xlink:href="#linear-gradient1-55"/><linearGradient id="linear-gradient1-59" x1="-145.2" y1="304.4" x2="-186.2" y2="304.4" gradientTransform="matrix(-1 0 0 1 -17.4 0)" gradientUnits="userSpaceOnUse"><stop offset=".4" stop-color="#a5b4ff"/><stop offset="1" stop-color="#8d9cff"/></linearGradient><linearGradient id="linear-gradient1-60" x1="-162.2" y1="304.5" x2="-162.2" y2="333.1" gradientTransform="matrix(-1 0 0 1 -17.4 0)" xlink:href="#linear-gradient1-33"/><linearGradient id="linear-gradient1-61" x1="-154.2" y1="322.3" x2="-152.3" y2="314.8" gradientTransform="matrix(-1 0 0 1 -17.4 0)" xlink:href="#linear-gradient1-33"/><linearGradient id="linear-gradient1-62" x1="-173.6" y1="311.6" x2="-159.8" y2="337.4" gradientTransform="matrix(-1 0 0 1 -17.4 0)" gradientUnits="userSpaceOnUse"><stop offset="0" stop-color="#303c5d"/><stop offset="1" stop-color="#001828"/></linearGradient><linearGradient id="linear-gradient1-63" x1="-101.5" y1="330.1" x2="-115.6" y2="329.9" gradientTransform="matrix(-1 0 0 1 -17.4 0)" xlink:href="#linear-gradient1-33"/><linearGradient id="linear-gradient1-64" x1="-123.3" y1="322.4" x2="-93.3" y2="322.4" gradientTransform="matrix(-1 0 0 1 -17.4 0)" gradientUnits="userSpaceOnUse"><stop offset="0" stop-color="#586582"/><stop offset="1" stop-color="#111219"/></linearGradient><linearGradient id="linear-gradient1-65" x1="-113.4" y1="337.8" x2="-211.1" y2="387.2" gradientTransform="matrix(-1 0 0 1 -17.4 0)" xlink:href="#linear-gradient1-22"/><linearGradient id="linear-gradient1-66" x1="-116.3" y1="336.5" x2="-110.4" y2="345.1" gradientTransform="matrix(-1 0 0 1 -17.4 0)" xlink:href="#linear-gradient1-22"/><linearGradient id="linear-gradient1-67" x1="-94.8" y1="327.6" x2="-89.6" y2="327.6" gradientTransform="matrix(-1 0 0 1 -17.4 0)" gradientUnits="userSpaceOnUse"><stop offset="0" stop-color="#ffa3a7"/><stop offset="1" stop-color="#cd71e2"/></linearGradient><linearGradient id="linear-gradient1-68" x1="-174.6" y1="350.6" x2="-181.9" y2="328" gradientTransform="matrix(-1 0 0 1 -17.4 0)" gradientUnits="userSpaceOnUse"><stop offset="0" stop-color="#526388"/><stop offset="1" stop-color="#636a99"/></linearGradient><linearGradient id="linear-gradient1-69" x1="-194.7" y1="339.6" x2="-235.3" y2="398.7" gradientTransform="matrix(-1 0 0 1 -17.4 0)" xlink:href="#linear-gradient1-22"/><linearGradient id="linear-gradient1-70" x1="-176.8" y1="312.7" x2="-176.8" y2="333.7" gradientTransform="matrix(-1 0 0 1 -17.4 0)" xlink:href="#linear-gradient1-33"/><linearGradient id="linear-gradient1-71" x1="-168.9" y1="405.1" x2="-206.3" y2="405.1" gradientTransform="matrix(-1 0 0 1 -17.4 0)" xlink:href="#linear-gradient1-22"/><linearGradient id="linear-gradient1-72" x1="-178.9" y1="444" x2="-102.7" y2="570.5" gradientTransform="matrix(-1 0 0 1 -17.4 0)" xlink:href="#linear-gradient1-22"/><linearGradient id="linear-gradient1-73" x1="-8470.9" y1="2007.6" x2="-8465.2" y2="2007.6" gradientTransform="scale(-1 1) rotate(-71.9 -5445 -4494.4)" xlink:href="#linear-gradient1-22"/><linearGradient id="linear-gradient1-74" x1="-234.1" y1="414.4" x2="-231.4" y2="403.6" gradientTransform="matrix(-1 0 0 1 -17.4 0)" xlink:href="#linear-gradient1-33"/><linearGradient id="linear-gradient1-75" x1="-233.2" y1="413" x2="-244.3" y2="412.8" gradientTransform="matrix(-1 0 0 1 -17.4 0)" xlink:href="#linear-gradient1-33"/><linearGradient id="linear-gradient1-76" x1="-217.2" y1="467.1" x2="-192.3" y2="433.8" gradientTransform="matrix(-1 0 0 1 -17.4 0)" xlink:href="#linear-gradient1-22"/><linearGradient id="linear-gradient1-77" x1="-142.1" y1="513.8" x2="-168.2" y2="513.8" gradientTransform="matrix(-1 0 0 1 -17.4 0)" gradientUnits="userSpaceOnUse"><stop offset="0" stop-color="#e9ddaf"/><stop offset="1" stop-color="#ee9bff"/></linearGradient><linearGradient id="linear-gradient1-78" x1="-168.2" y1="519" x2="-142.2" y2="519" gradientTransform="matrix(-1 0 0 1 -17.4 0)" xlink:href="#linear-gradient1-47"/><linearGradient id="linear-gradient1-79" x1="-161.8" y1="514.4" x2="-161.8" y2="507.7" gradientTransform="matrix(-1 0 0 1 -17.4 0)" xlink:href="#linear-gradient1-33"/><linearGradient id="linear-gradient1-80" x1="-209.1" y1="514.3" x2="-235" y2="514.3" xlink:href="#linear-gradient1-77"/><linearGradient id="linear-gradient1-81" x1="-235" y1="519" x2="-209.1" y2="519" gradientTransform="matrix(-1 0 0 1 -17.4 0)" xlink:href="#linear-gradient1-47"/><linearGradient id="linear-gradient1-82" x1="-229" y1="514.4" x2="-229" y2="508.5" gradientTransform="matrix(-1 0 0 1 -17.4 0)" xlink:href="#linear-gradient1-33"/><style>.cls1-2{fill:#c0b6f2}.cls1-5{fill:#ffe380}.cls1-8{fill:#eae6ff}.cls1-50,.cls1-8,.cls1-9{fill-rule:evenodd}.cls1-9{fill:#fff}.cls1-11{fill:#b2d4ff}</style></defs><g id="Layer_2" data-name="Layer 2"><path d="M187.4 16.9A19 19 0 0 0 165 31.4a18.3 18.3 0 0 0 2.6 14.3 19 19 0 0 0 34.5-6.3 18.3 18.3 0 0 0-2.6-14.3 18.3 18.3 0 0 0-12-8.3Z" style="fill:url(#linear-gradient1)" id="Layer19_0_FILL" data-name="Layer19 0 FILL"/><circle class="cls1-2" cx="180.5" cy="49.5" r="3.8"/><path d="M190.7 46.7a12.9 12.9 0 0 0 5.8-8.5 12.8 12.8 0 0 0-1.8-10 13.4 13.4 0 0 0-24.3 4.4 13.4 13.4 0 0 0 10.3 15.9 12.9 12.9 0 0 0 10-1.8Z" style="fill:url(#linear-gradient1-2)" id="Layer18_0_FILL" data-name="Layer18 0 FILL"/><g id="Layer17_0_FILL" data-name="Layer17 0 FILL"><path d="M186.4 35.7a1.9 1.9 0 0 0-1.5.2 1.8 1.8 0 0 0-.8 1.3l-.2.9-1.9-.4.2-1a2 2 0 0 0-.2-1.4 1.9 1.9 0 0 0-1.2-.8 1.8 1.8 0 0 0-1.5.3 1.9 1.9 0 0 0-.8 1.2 1.8 1.8 0 0 0 .3 1.4 1.9 1.9 0 0 0 1.1.8l1 .2-.7 3.4-1 4h.3l.7.2.8-3.9.8-3.6 1.9.4-.8 3.6-.8 3.9 1 .2.8-4 .7-3.5 1 .2a1.9 1.9 0 0 0 1.4-.3 2 2 0 0 0 .8-1.2 1.9 1.9 0 0 0-.2-1.4 1.8 1.8 0 0 0-1.2-.8m-1 1a1 1 0 0 1 1.5 1 .9.9 0 0 1-.4.6.9.9 0 0 1-.7.2l-1-.2.2-1a1 1 0 0 1 .4-.6m-4.8-1.3a1 1 0 0 1 .6.4.8.8 0 0 1 0 .7l-.1 1-1-.2a1 1 0 0 1-.5-.5.9.9 0 0 1-.2-.7 1 1 0 0 1 .4-.6 1 1 0 0 1 .8 0Z" style="fill:url(#linear-gradient1-3)"/><path class="cls1-5" d="m181.8 38.6-.7 3.6-.9 3.9 1.7.3.2.1.8-3.9.8-3.6-1.9-.4zm4.7-.2a.9.9 0 0 0 .4-.6 1 1 0 0 0-1.5-1 1 1 0 0 0-.4.6l-.2.9 1 .2a.9.9 0 0 0 .7-.1Zm-5.9-3a1 1 0 0 0-.8.2 1 1 0 0 0-.4.6.9.9 0 0 0 .2.7 1 1 0 0 0 .6.4l.9.2.2-1a.8.8 0 0 0-.2-.6 1 1 0 0 0-.5-.5Z"/><path class="cls1-5" d="M192.4 36.6a9.1 9.1 0 0 0-.2-3 9.3 9.3 0 0 0-1.2-3 9 9 0 0 0-2-2.2 9.2 9.2 0 0 0-2.8-1.5l-.4-.1-.4-.1h-.4l-.4-.1a9 9 0 0 0-3.2.2 9.2 9.2 0 0 0-5 3.3 9.3 9.3 0 0 0-1.6 2.8 9.5 9.5 0 0 0-.4 4.3A9.3 9.3 0 0 0 176 41a9.6 9.6 0 0 1 1.1 2.2 6.3 6.3 0 0 1 .4 2.3l1.8.4 1-4 .7-3.5-1-.1a1.9 1.9 0 0 1-1.2-.9 1.8 1.8 0 0 1-.2-1.4 1.9 1.9 0 0 1 .8-1.2 1.8 1.8 0 0 1 1.4-.3 1.9 1.9 0 0 1 1.2.8 2 2 0 0 1 .3 1.5l-.2 1 1.9.3.2-.9a1.8 1.8 0 0 1 .8-1.2 1.9 1.9 0 0 1 1.4-.3 1.8 1.8 0 0 1 1.2.9 1.9 1.9 0 0 1 .3 1.4 2 2 0 0 1-.8 1.2 1.9 1.9 0 0 1-1.5.3l-.9-.2-.7 3.4-.9 4 1.9.4a6.5 6.5 0 0 1 1.3-2 9.6 9.6 0 0 1 1.9-1.5 9.2 9.2 0 0 0 3-3 9.3 9.3 0 0 0 1-2.4 11 11 0 0 0 .3-1.6Z"/></g><g id="Layer9_0_FILL" data-name="Layer9 0 FILL"><path class="cls1-2" d="M182.3 48a.4.4 0 0 0 0 .3.5.5 0 0 0 .3.3l1.9.4.2-1-1.9-.4a.5.5 0 0 0-.3 0 .4.4 0 0 0-.3.4m-1.4-.7a.6.6 0 0 0-.3-.2l-3.3-.7-.2 1 3.3.6a.4.4 0 0 0 .4 0 .5.5 0 0 0 .2-.3.5.5 0 0 0-.1-.4Z"/><path d="m177.4 45.5-.2 1 3.3.6a.6.6 0 0 1 .3.2.5.5 0 0 1 0 .4.5.5 0 0 1-.2.3.4.4 0 0 1-.4 0l-3.2-.6-.3 1.4 1 .2 5.5 1.2 1 .2.3-1.4-1.9-.4a.5.5 0 0 1-.3-.3.4.4 0 0 1 0-.3.4.4 0 0 1 .1-.3.5.5 0 0 1 .4 0l1.9.4.2-1-1.8-.3-1.3-.3-1.6-.4-.7-.1Z" style="fill:#998dd9"/><path class="cls1-2" d="M186.4 35.7a1.9 1.9 0 0 0-1.5.2 1.8 1.8 0 0 0-.8 1.3l-.2.9-1.9-.4.2-1a2 2 0 0 0-.2-1.4 1.9 1.9 0 0 0-1.2-.8 1.8 1.8 0 0 0-1.5.3 1.9 1.9 0 0 0-.8 1.2 1.8 1.8 0 0 0 .3 1.4 1.9 1.9 0 0 0 1.1.8l1 .2-.7 3.4-1 4h.3l.7.2.8-3.9.8-3.6 1.9.4-.8 3.6-.8 3.9 1 .2.8-4 .7-3.5 1 .2a1.9 1.9 0 0 0 1.4-.3 2 2 0 0 0 .8-1.2 1.9 1.9 0 0 0-.2-1.4 1.8 1.8 0 0 0-1.2-.8m-1 1a1 1 0 0 1 1.5 1 .9.9 0 0 1-.4.6.9.9 0 0 1-.7.2l-1-.2.2-1a1 1 0 0 1 .4-.6m-4.8-1.3a1 1 0 0 1 .6.4.8.8 0 0 1 0 .7l-.1 1-1-.2a1 1 0 0 1-.5-.5.9.9 0 0 1-.2-.7 1 1 0 0 1 .4-.6 1 1 0 0 1 .8 0Z"/><path d="m183.7 39-.8 3.6-.8 3.9h-.2l-1.7-.4.9-4 .7-3.5Zm-3.1-3.6a1 1 0 0 0-.8.1 1 1 0 0 0-.4.6.9.9 0 0 0 .2.7 1 1 0 0 0 .6.5l.9.2.2-1a.8.8 0 0 0-.2-.7 1 1 0 0 0-.5-.4Zm5.9 3a.9.9 0 0 0 .4-.7 1 1 0 0 0-1.5-1 1 1 0 0 0-.4.6l-.2 1 1 .2a.9.9 0 0 0 .7-.1Zm6-1.8a9.1 9.1 0 0 0-.3-3 9.3 9.3 0 0 0-1.2-3 9 9 0 0 0-2-2.2 9.2 9.2 0 0 0-2.8-1.5l-.4-.1-.4-.1h-.4l-.4-.1a9 9 0 0 0-3.2.2 9.2 9.2 0 0 0-5 3.3 9.3 9.3 0 0 0-1.6 2.8 9.5 9.5 0 0 0-.4 4.3A9.3 9.3 0 0 0 176 41a9.6 9.6 0 0 1 1.1 2.2 6.3 6.3 0 0 1 .4 2.3l1.8.4 1-4 .7-3.5-1-.1a1.9 1.9 0 0 1-1.2-.9 1.8 1.8 0 0 1-.2-1.4 1.9 1.9 0 0 1 .8-1.2 1.8 1.8 0 0 1 1.4-.3 1.9 1.9 0 0 1 1.2.8 2 2 0 0 1 .3 1.5l-.2 1 1.9.3.2-.9a1.8 1.8 0 0 1 .8-1.2 1.9 1.9 0 0 1 1.4-.3 1.8 1.8 0 0 1 1.2.9 1.9 1.9 0 0 1 .3 1.4 2 2 0 0 1-.8 1.2 1.9 1.9 0 0 1-1.5.3l-.9-.2-.7 3.4-.9 4 1.9.4a6.5 6.5 0 0 1 1.3-2 9.6 9.6 0 0 1 1.9-1.5 9.2 9.2 0 0 0 3-3 9.3 9.3 0 0 0 1-2.4 11 11 0 0 0 .3-1.6Z" style="fill:url(#linear-gradient1-4)"/></g><path class="cls1-8" d="M181.5 128.2q7.5.2 7.5 7.9V346q0 7.7-7.5 8H50.1q-7.9 0-7.9-8V136q0-7.8 8-7.8Z"/><path class="cls1-9" d="M180.9 160.4v25.5q0 5.6-5.6 5.6H55.5c-3.7 0-5.6-1.9-5.6-5.6v-32.2c0-3.7 1.9-5.6 5.6-5.6h119.8c3.7 0 5.6 1.9 5.6 5.6Zm-131 130.3h131v50.1q0 5.5-5.6 5.5H55.5c-3.7 0-5.6-1.8-5.6-5.5Z"/><path d="M180.9 290.7h-131v-88.5c0-3.7 1.9-5.5 5.6-5.5h119.8q5.6 0 5.6 5.5Z" style="fill:url(#linear-gradient1-5);fill-rule:evenodd"/><circle id="Options1" class="cls1-11" cx="177.1" cy="138.2" r="2.2"/><circle id="Options1-2" data-name="Options" class="cls1-11" cx="168.6" cy="138.2" r="2.2"/><circle id="Options1-3" data-name="Options" class="cls1-11" cx="160.2" cy="138.3" r="2.2"/><path class="cls1-11" d="m97.5 141.8-44.4-.2a3 3 0 0 1 0-6.1l44.4.2a3 3 0 0 1 0 6Z"/><path d="M62.8 325.9a2.3 2.3 0 0 1-.7-1.7 2.5 2.5 0 0 1 2.4-2.4 2.3 2.3 0 0 1 1.7.7l3.2 3.3 9.7-9.7a2.2 2.2 0 0 1 1.7-.7 2.4 2.4 0 0 1 2.3 2.4 2.3 2.3 0 0 1-.7 1.7l-11.3 11.3a2.2 2.2 0 0 1-1.7.7 2.2 2.2 0 0 1-1.6-.7Z" style="fill:url(#linear-gradient1-6);fill-rule:evenodd"/><path d="m62.8 325.9 5 4.9a2.2 2.2 0 0 0 1.6.7 2.2 2.2 0 0 0 1.7-.7l11.3-11.3a2.3 2.3 0 0 0 .7-1.7 2.4 2.4 0 0 0-2.3-2.4 2.2 2.2 0 0 0-1.7.7l-9.7 9.7-3.2-3.3a2.3 2.3 0 0 0-1.7-.7 2.5 2.5 0 0 0-2.4 2.4 2.3 2.3 0 0 0 .7 1.7Zm.8 12.9q-6.3 0-6.3-6.4v-18q0-6.3 6.3-6.3h18q6.4 0 6.4 6.3v18q0 6.4-6.3 6.4Z" style="fill:url(#linear-gradient1-7);fill-rule:evenodd"/><path d="M153 155.8a2.3 2.3 0 0 1 1.7.7 2.1 2.1 0 0 1 .7 1.7 2.3 2.3 0 0 1-2.4 2.3H59.8a2.2 2.2 0 0 1-1.7-.7 2.3 2.3 0 0 1-.7-1.6 2.1 2.1 0 0 1 .7-1.7 2.1 2.1 0 0 1 1.7-.7Z" style="fill:url(#linear-gradient1-8);fill-rule:evenodd"/><path d="M110.4 179.4a2.3 2.3 0 0 1 1.7.8 2.3 2.3 0 0 1 .7 1.6 2.5 2.5 0 0 1-.7 1.7 2.5 2.5 0 0 1-1.7.7H59.8a2.4 2.4 0 0 1-1.6-.5.8.8 0 0 1-.1-.2 2.4 2.4 0 0 1-.7-1.7 2.1 2.1 0 0 1 .7-1.6 2.1 2.1 0 0 1 1.7-.8Z" style="fill:url(#linear-gradient1-9);fill-rule:evenodd"/><path d="M164 167.6a2.3 2.3 0 0 1 2.3 2.4 2.3 2.3 0 0 1-.7 1.7 2.3 2.3 0 0 1-1.7.7H59.8a2.2 2.2 0 0 1-1.7-.7 2.3 2.3 0 0 1-.7-1.7 2.2 2.2 0 0 1 .7-1.7 2.2 2.2 0 0 1 1.7-.7Z" style="fill:url(#linear-gradient1-10);fill-rule:evenodd"/><path d="M162.5 297.9a2.4 2.4 0 0 1 1.7.7 2.3 2.3 0 0 1 .7 1.7 2.3 2.3 0 0 1-2.4 2.3H59.8a2.2 2.2 0 0 1-1.7-.7 2.2 2.2 0 0 1-.7-1.6 2.4 2.4 0 0 1 2.4-2.4Z" style="fill:url(#linear-gradient1-11);fill-rule:evenodd"/><path class="cls1-8" d="M340.8 128.2q7.6.2 7.6 7.9v282.7q0 7.7-7.6 7.8H209.5q-7.9 0-7.9-7.8V136q0-8 7.9-8Z"/><path class="cls1-9" d="M340.3 153.7v19.5q0 5.6-5.6 5.6H214.9q-5.6 0-5.6-5.6v-19.5c0-3.7 1.8-5.5 5.6-5.5h119.8c3.7 0 5.6 1.8 5.6 5.5Zm-87.2 210h87.2v50c0 3.6-1.9 5.4-5.6 5.4H215c-3.8 0-5.6-1.8-5.6-5.5v-49.8h19Z"/><path d="M161.2 219.4h-.2a3.6 3.6 0 0 1-2.4-1.6 1.9 1.9 0 0 1-.3-.5 3.6 3.6 0 0 1-.3-2.4 3.6 3.6 0 0 1 1.6-2.3 3.6 3.6 0 0 1 5.3 1 3.4 3.4 0 0 1 .5 2.8 3.8 3.8 0 0 1-1.6 2.5 3.4 3.4 0 0 1-2.6.5Zm-62 20.6a3.7 3.7 0 0 1 0-2 3.8 3.8 0 0 1 1.7-2.3 3.7 3.7 0 0 1 2.8-.5 3.5 3.5 0 0 1 2.4 1.6 4 4 0 0 1 .6 2.5v.3a3.5 3.5 0 0 1-1.7 2.4.8.8 0 0 1-.3.2 3.5 3.5 0 0 1-2.5.4 1.8 1.8 0 0 0-.3 0 3.6 3.6 0 0 1-2-1.6 4.8 4.8 0 0 1-.6-1Zm25.5 12.9a3.5 3.5 0 0 1 2.5-.4 2.3 2.3 0 0 1 .4 0 3.8 3.8 0 0 1 2 1.6 5.3 5.3 0 0 1 .5 1 3.5 3.5 0 0 1 .1 1.9 4 4 0 0 1-1.6 2.4 3.8 3.8 0 0 1-2.9.5 3.6 3.6 0 0 1-2.4-1.6 3.4 3.4 0 0 1-.6-2.4 2.4 2.4 0 0 1 .1-.4 3.8 3.8 0 0 1 1.6-2.5 1.7 1.7 0 0 0 .3 0Zm-54.4 16.4a3.3 3.3 0 0 1 2 1.4 4.4 4.4 0 0 1 .6 1 3.5 3.5 0 0 1 0 1.8 3.9 3.9 0 0 1-4.4 3A3.6 3.6 0 0 1 66 275a3.8 3.8 0 0 1 1-5.2 3.6 3.6 0 0 1 2.8-.6 1.1 1.1 0 0 1 .4.2Z" style="fill:#ffe2c9;fill-rule:evenodd"/><path d="m161.2 219.4-31 35.7a5.3 5.3 0 0 0-.5-1 3.8 3.8 0 0 0-2.1-1.5l30.7-35.3a1.9 1.9 0 0 0 .3.5 3.6 3.6 0 0 0 2.4 1.5Zm-54.5 19.9 18 13.6a1.7 1.7 0 0 1-.3.1 3.8 3.8 0 0 0-1.5 2.5 2.4 2.4 0 0 0-.1.4l-18-13.7a.8.8 0 0 0 .3-.1 3.5 3.5 0 0 0 1.6-2.5v-.3Zm-7.4.7a4.8 4.8 0 0 0 .5 1 3.6 3.6 0 0 0 2 1.6l-28.9 29.2a4.4 4.4 0 0 0-.5-1 3.3 3.3 0 0 0-2-1.5Z" style="fill:#bbcbff;fill-rule:evenodd"/><path d="M340.3 189.2v64q0 5.5-5.3 5.6H214.9q-5.6 0-5.6-5.5v-64q0-5.6 5.6-5.6H335q5.3.2 5.3 5.5Z" style="fill:url(#linear-gradient1-12);fill-rule:evenodd"/><path d="M228.3 363.7h-19v-94.4a6.5 6.5 0 0 1 .5-2.9q1.2-2.5 4.9-2.6h120q5.6 0 5.6 5.5v94.5H321Z" style="fill:url(#linear-gradient1-13);fill-rule:evenodd"/><circle id="Options1-4" data-name="Options" class="cls1-11" cx="338.6" cy="137" r="2.2"/><circle id="Options1-5" data-name="Options" class="cls1-11" cx="330.1" cy="137.1" r="2.2"/><circle id="Options1-6" data-name="Options" class="cls1-11" cx="321.6" cy="137.1" r="2.2"/><path class="cls1-11" d="m259 140.6-44.4-.2a3 3 0 0 1 0-6.1l44.4.2a3 3 0 0 1 0 6.1Z"/><path d="M219 160.5a2.1 2.1 0 0 1-1.5-.7 2.2 2.2 0 0 1-.8-1.7 2 2 0 0 1 .8-1.6 2.1 2.1 0 0 1 1.6-.7h98a2.3 2.3 0 0 1 1.7.7 2.2 2.2 0 0 1 .7 1.6 2.3 2.3 0 0 1-2.4 2.4Z" style="fill:url(#linear-gradient1-14);fill-rule:evenodd"/><path d="M217.5 168.3a2.1 2.1 0 0 1 1.6-.7h99.4a2.5 2.5 0 0 1 1.7.7 2.3 2.3 0 0 1 .7 1.7 2.4 2.4 0 0 1-.6 1.7 2.5 2.5 0 0 1-1.8.7h-99.4a2.2 2.2 0 0 1-1.6-.7 2.2 2.2 0 0 1-.8-1.7 2.2 2.2 0 0 1 .8-1.7Z" style="fill:url(#linear-gradient1-15);fill-rule:evenodd"/><path d="M308.5 371a2.4 2.4 0 0 1 2.4 2.3 2.3 2.3 0 0 1-.7 1.7 2.3 2.3 0 0 1-1.7.7h-89.4a2.1 2.1 0 0 1-1.6-.7 2.2 2.2 0 0 1-.8-1.7 2.2 2.2 0 0 1 .8-1.7 2.2 2.2 0 0 1 1.6-.7h89.4Z" style="fill:url(#linear-gradient1-16);fill-rule:evenodd"/><path d="M281.4 407.4a2.3 2.3 0 0 1 1.6.7 2.3 2.3 0 0 1 .7 1.7 2.4 2.4 0 0 1-2.3 2.3H219a2.1 2.1 0 0 1-1.6-.7 2.2 2.2 0 0 1-.8-1.6 2.3 2.3 0 0 1 .8-1.7 2.2 2.2 0 0 1 1.6-.7h62.3Z" style="fill:url(#linear-gradient1-17);fill-rule:evenodd"/><path d="M312.3 383.5a2.2 2.2 0 0 1 1.7.7 2.2 2.2 0 0 1 .7 1.7 2.3 2.3 0 0 1-2.4 2.3h-93.2a2.3 2.3 0 0 1-1.7-.6 2.3 2.3 0 0 1-.7-1.7 2.2 2.2 0 0 1 .7-1.6 2.2 2.2 0 0 1 1.7-.8Z" style="fill:url(#linear-gradient1-18);fill-rule:evenodd"/><path d="M324.9 396a2.3 2.3 0 0 1 .7 1.7 2.4 2.4 0 0 1-.7 1.7 2.3 2.3 0 0 1-1.7.7H219.1a2.2 2.2 0 0 1-1.7-.7 2.4 2.4 0 0 1-.7-1.7 2.3 2.3 0 0 1 .7-1.6 2.3 2.3 0 0 1 1.7-.7h104.1a2.3 2.3 0 0 1 1.7.7Z" style="fill:url(#linear-gradient1-19);fill-rule:evenodd"/><path d="M276.7 333.8a2.8 2.8 0 0 1 .9-2 2.8 2.8 0 0 1 2-1h28a2.9 2.9 0 0 1 2 1 2.8 2.8 0 0 1 .9 2v19.6a3 3 0 0 1-3 3h-27.8a3 3 0 0 1-3-3Zm-37.7 0a2.8 2.8 0 0 1 .9-2 2.8 2.8 0 0 1 2.1-1h27.8a2.9 2.9 0 0 1 2.2 1 2.8 2.8 0 0 1 .8 2v19.6a3 3 0 0 1-3 3H242a3 3 0 0 1-3-3Zm2.4-54.5a2.9 2.9 0 0 1-2.1-.9 3 3 0 0 1-.9-2 3 3 0 0 1 3-3h66.8a3 3 0 0 1 2.1.8 2.9 2.9 0 0 1 .9 2.1 2.9 2.9 0 0 1-3 3Zm-2.4 9a3 3 0 0 1 3-3h65.5a2.9 2.9 0 0 1 2.1.8 2.9 2.9 0 0 1 .9 2.1V321a3 3 0 0 1-.9 2.1 3 3 0 0 1-2 .9H242a3 3 0 0 1-3-3Z" style="fill:url(#linear-gradient1-20);fill-rule:evenodd"/><g style="opacity:.5"><path class="cls1-8" d="M500.3 128.2q7.5.2 7.5 7.9v54.3q0 7.7-7.5 8H368.9q-8 0-8-8v-54.3q0-8 8-8Z"/><path class="cls1-9" d="M374 148.8h120.3a5.4 5.4 0 0 1 5.4 5.4V185q0 5.5-5.6 5.5H374.3q-5.6 0-5.6-5.5v-30.8a5.4 5.4 0 0 1 5.4-5.4Z"/><path d="M460.7 170.7a2.3 2.3 0 0 1 1.7.8 2.1 2.1 0 0 1 .7 1.6 2.3 2.3 0 0 1-2.4 2.4h-82.2a2.3 2.3 0 0 1-1.7-.7 2.4 2.4 0 0 1-.7-1.7 2.1 2.1 0 0 1 .7-1.6 2.2 2.2 0 0 1 1.7-.8h82.2Zm29.4-11a2.4 2.4 0 0 1 .6 1.6 2.3 2.3 0 0 1-2.4 2.4H378.5a2.3 2.3 0 0 1-1.7-.7 2.4 2.4 0 0 1-.7-1.7 2.3 2.3 0 0 1 .7-1.7 2.3 2.3 0 0 1 1.7-.7h109.8a2.4 2.4 0 0 1 1.8.7Z" style="fill:url(#linear-gradient1-21);fill-rule:evenodd"/><circle id="Options1-7" data-name="Options" class="cls1-11" cx="495.8" cy="137.8" r="2.2"/><circle id="Options1-8" data-name="Options" class="cls1-11" cx="487.3" cy="137.9" r="2.2"/><circle id="Options1-9" data-name="Options" class="cls1-11" cx="478.8" cy="137.9" r="2.2"/><path class="cls1-11" d="m416.1 141.4-44.4-.2a3 3 0 0 1 0-6.1l44.5.2a3 3 0 0 1 0 6.1Z"/></g><path d="M204.4 139h1.8l119.8 4.1q5.6.2 5.4 5.7l-2.2 64q-.2 5.6-5.8 5.4l-3.8-.1h-.6L201.6 214v-73Z" style="fill-opacity:.5;fill:#017fc9;fill-rule:evenodd"/><path d="M217.6 131.8a3.6 3.6 0 0 0 1.1-2.3 7.3 7.3 0 0 1 4.1 2.3 1 1 0 0 1 .3.9 1.2 1.2 0 0 1-.3.8 1.4 1.4 0 0 1-.9.3 1 1 0 0 1-.8-.3 4.8 4.8 0 0 0-3.5-1.7Zm-1.2-6a.5.5 0 0 1 .2 0 7 7 0 0 1 7.6 2 1.7 1.7 0 0 1 .3.8 1 1 0 0 1-.4.8 1 1 0 0 1-.8.3 1.3 1.3 0 0 1-.9-.3 4.7 4.7 0 0 0-4-1.7 3 3 0 0 0-.6-1 3.6 3.6 0 0 0-1.4-1Z" style="fill:#32ccff;fill-rule:evenodd"/><path d="M216.4 125.8a3.6 3.6 0 0 1 1.3.9 3 3 0 0 1 .7 1 3.4 3.4 0 0 1 .3 1.5.5.5 0 0 1 0 .3 3.6 3.6 0 0 1-1.1 2.3 3.5 3.5 0 0 1-2.7 1q-22.2-1-30.5-20.9a3.5 3.5 0 0 1 0-2.7 3.3 3.3 0 0 1 2-2 3.8 3.8 0 0 1 2.9 0 3.4 3.4 0 0 1 2 2q6.4 15.5 24 16.2a4 4 0 0 1 1.1.4Z" style="fill:url(#linear-gradient1-22);fill-rule:evenodd"/><path d="M199.5 184.3a2 2 0 0 1-1.6-.8 2.4 2.4 0 0 1-.7-1.7 2.3 2.3 0 0 1 .8-1.6 2 2 0 0 1 1.6-.7l20.5.7a360 360 0 0 1 7.1.3 2.1 2.1 0 0 1 .5 0l7.9.3 38.3 1.3a2.2 2.2 0 0 1 1.7.7 2.2 2.2 0 0 1 .6 1.7 2.2 2.2 0 0 1-.7 1.7 2.4 2.4 0 0 1-1.7.7l-38.3-1.4-8-.3a3.6 3.6 0 0 0-.4 0h-2.4l-4.7-.2-20.5-.8Z" style="fill:#c4d4e0;fill-rule:evenodd"/><path class="cls1-9" d="M263.3 133.2a7.2 7.2 0 0 1 4.8-3.4l-1.2 33.7a4 4 0 0 1-3-1.3 4.2 4.2 0 0 1-1-3l.8-9.2a2.9 2.9 0 0 1-1.9-1.2 3.6 3.6 0 0 1-.6-2.3l.2-7.4a10.8 10.8 0 0 1 1.9-5.9Zm-6.9-3.7h2.7l-.2 8.6a5.2 5.2 0 0 1-1.4 3.4 5.8 5.8 0 0 1-3 1.9l-.2 17.2a2.6 2.6 0 0 1-.7 1.7 2.3 2.3 0 0 1-1.8.7 2 2 0 0 1-1.6-.8 2.4 2.4 0 0 1-.6-1.8l1-17.2a5.8 5.8 0 0 1-2.7-2.1 5.7 5.7 0 0 1-1-3.4l.2-8.5h2.6l-.3 8a1.1 1.1 0 0 0 .2.7 1.2 1.2 0 0 0 .8.3.7.7 0 0 0 .7-.2 1.1 1.1 0 0 0 .4-.8l.3-8 2.6.2-.3 7.8a1 1 0 0 0 .3.9.8.8 0 0 0 .7.3.8.8 0 0 0 .7-.3 1.4 1.4 0 0 0 .4-.8Z"/><path d="m190.1 171.2 131 4.5-.3 7.4-.2 7.5q-.2 5.5-5.8 5.3L195 192q-5.6-.3-5.4-5.8l.3-7.5Zm9.4 13 20.5.8 4.7.1 2.4.1a3.6 3.6 0 0 1 .5 0l7.9.3 38.3 1.3a2.4 2.4 0 0 0 1.7-.6 2.2 2.2 0 0 0 .7-1.7 2.2 2.2 0 0 0-.6-1.7 2.2 2.2 0 0 0-1.7-.7l-38.3-1.4-7.9-.2a2.1 2.1 0 0 0-.5 0l-2.3-.1-4.8-.2-20.5-.7a2 2 0 0 0-1.6.6 2.3 2.3 0 0 0-.8 1.7 2.4 2.4 0 0 0 .7 1.7 2 2 0 0 0 1.6.8Z" style="fill:#c3d4e0;fill-rule:evenodd"/><path d="m321 175.7-130.9-4.5 1.7-49.1q.2-5.5 5.8-5.3l119.8 4.1q5.5.2 5.3 5.7Zm-64.6-46.2-.3 7.8a1.4 1.4 0 0 1-.3.8.8.8 0 0 1-.7.3.8.8 0 0 1-.7-.3 1 1 0 0 1-.3-.9l.2-7.9h-2.6l-.3 7.9a1.1 1.1 0 0 1-.3.7.7.7 0 0 1-.7.3 1.2 1.2 0 0 1-.8-.3 1.1 1.1 0 0 1-.2-.8l.2-7.9h-2.5l-.3 8.5a5.7 5.7 0 0 0 1 3.4 5.8 5.8 0 0 0 2.8 2l-1 17.3a2.4 2.4 0 0 0 .6 1.8 2 2 0 0 0 1.6.8 2.3 2.3 0 0 0 1.7-.7 2.6 2.6 0 0 0 .8-1.7v-17.2a5.8 5.8 0 0 0 3.1-2 5.2 5.2 0 0 0 1.4-3.3l.3-8.6Zm6.9 3.7a10.8 10.8 0 0 0-1.9 5.9l-.2 7.3a3.6 3.6 0 0 0 .6 2.4 2.9 2.9 0 0 0 2 1.2l-1 9.1a4.2 4.2 0 0 0 1.2 3 4 4 0 0 0 3 1.4l1.1-33.7a7.2 7.2 0 0 0-4.8 3.4Z" style="fill:url(#linear-gradient1-23);fill-rule:evenodd"/><path class="cls1-9" d="m185.8 171 131 4.5-.3 7.5-.2 7.4q-.2 5.6-5.8 5.4l-119.8-4.2q-5.6-.2-5.3-5.7l.2-7.5Zm9.4 13.1 20.5.7 4.8.2h2.3a2.2 2.2 0 0 1 .5 0l7.9.3 38.3 1.3a2.4 2.4 0 0 0 1.7-.6 2.3 2.3 0 0 0 .7-1.7 2.3 2.3 0 0 0-2.3-2.4l-38.3-1.3-7.9-.3a1.6 1.6 0 0 0-.4 0l-2.4-.1-4.8-.2-20.5-.7a2 2 0 0 0-1.6.7 2.2 2.2 0 0 0-.8 1.6 2.4 2.4 0 0 0 .7 1.7 2.2 2.2 0 0 0 1.6.8Z"/><path d="m316.8 175.6-131-4.6 1.7-49q.2-5.5 5.8-5.3l119.7 4c3.7.2 5.5 2 5.4 5.8Z" style="fill:url(#linear-gradient1-24);fill-rule:evenodd"/><path d="M195.2 184.1a2.2 2.2 0 0 1-1.6-.7 2.4 2.4 0 0 1-.7-1.7 2.2 2.2 0 0 1 .8-1.6 2 2 0 0 1 1.6-.7l20.5.7 4.8.1 2.4.1a1.6 1.6 0 0 1 .4.1l7.9.3 38.3 1.3a2.3 2.3 0 0 1 2.3 2.4 2.3 2.3 0 0 1-.7 1.7 2.4 2.4 0 0 1-1.7.6l-38.4-1.3-7.8-.3a2.2 2.2 0 0 0-.5 0h-2.3l-4.8-.2-20.5-.8Z" style="fill:url(#linear-gradient1-25);fill-rule:evenodd"/><path d="m194.8 100.9-34.5-4.7a.6.6 0 0 0-.3 0 7.7 7.7 0 0 1-1.3-.4q-3.8-1.2-3.1-5.8l3.8-28.8q.8-5.4 6-4.8h.2l54 7.3q5.4.7 4.7 6.2l-4 28.8q-.7 5.5-6 4.8Zm14.8-24.3a2.6 2.6 0 0 0-2 .5 3 3 0 0 0-1.1 1.8l-.8 5.5a2.6 2.6 0 0 0 .6 2.1 2.5 2.5 0 0 0 1.8 1.2 3 3 0 0 0 2.2-.6 2.9 2.9 0 0 0 1-2l.8-5.4a2.5 2.5 0 0 0-.6-2 2.6 2.6 0 0 0-1.9-1.1Zm-20.8 18a13 13 0 0 0 3.8-.2c1.2-.3 1.8-.7 2-1.3s0-.8-.5-1l-9.7-1.3c-.6 0-1 .2-1 .8s.7 1.1 1.8 1.7a11.7 11.7 0 0 0 3.6 1.3Zm-14-14.4.7-5.5a2.5 2.5 0 0 0-.6-2 2.5 2.5 0 0 0-1.8-1.1 2.8 2.8 0 0 0-3.2 2.4l-.8 5.5a2.7 2.7 0 0 0 .6 2.1 2.7 2.7 0 0 0 1.8 1.1 3 3 0 0 0 2.2-.5 2.8 2.8 0 0 0 1-2Z" style="fill:url(#linear-gradient1-26);fill-rule:evenodd"/><path d="M209.6 76.6a2.6 2.6 0 0 1 2 1 2.5 2.5 0 0 1 .4 2l-.7 5.5a2.9 2.9 0 0 1-1 2 3 3 0 0 1-2.2.5 2.5 2.5 0 0 1-1.8-1 2.6 2.6 0 0 1-.6-2.2l.8-5.5a3 3 0 0 1 1-1.9 2.6 2.6 0 0 1 2.1-.4Zm-34.9 3.6a2.8 2.8 0 0 1-1 2 3 3 0 0 1-2.2.5 2.7 2.7 0 0 1-1.8-1.1 2.7 2.7 0 0 1-.6-2.1l.8-5.5a2.8 2.8 0 0 1 3.1-2.4 2.5 2.5 0 0 1 1.9 1 2.5 2.5 0 0 1 .6 2.2Z" style="fill:#839fb6;fill-rule:evenodd"/><path d="M188.8 94.6a11.7 11.7 0 0 1-3.7-1.2c-1-.6-1.6-1.2-1.7-1.7s.3-.8 1-.8l9.6 1.3c.6.1.7.4.5 1s-.8 1-2 1.3a13 13 0 0 1-3.8 0Z" style="fill:#f16780;fill-rule:evenodd"/><path d="m160 96.2-12.6-1.7-20-2.7q-5.4-.8-4.6-6.2l3.8-28.9q.8-5.4 6.3-4.7l32.5 4.4q-5.2-.6-6 4.8L155.6 90q-.7 4.6 3 5.8a7.7 7.7 0 0 0 1.4.4Z" style="fill:url(#linear-gradient1-27);fill-rule:evenodd"/><path d="M191.9 104.4a38 38 0 0 1-3.1 2.7 27.2 27.2 0 0 1-8.2 4.4 25.7 25.7 0 0 1-11.4.8 28.3 28.3 0 0 1-6.3-1.6 6.6 6.6 0 0 0 2.4-4.3 7 7 0 0 0-5.9-7.7 6.8 6.8 0 0 0-5.2 1.4 6.3 6.3 0 0 0-2 2.7 5.7 5.7 0 0 1-.6-.7 26.7 26.7 0 0 1-4.2-7.6l12.6 1.7a.6.6 0 0 1 .2 0l34.6 4.7a26.8 26.8 0 0 1-2.9 3.5Z" style="fill:url(#linear-gradient1-28);fill-rule:evenodd"/><path d="M180.6 111.5a27.2 27.2 0 0 0 8.2-4.4 38 38 0 0 0 3.1-2.7l.7.9a6.5 6.5 0 0 1 1.3 5 6.7 6.7 0 0 1-2.6 4.6 6.5 6.5 0 0 1-5 1.3 6.8 6.8 0 0 1-4.6-2.7 8.1 8.1 0 0 1-1.1-2Z" style="fill:url(#linear-gradient1-29);fill-rule:evenodd"/><path d="M152.2 102.8a6.3 6.3 0 0 1 2-2.7 6.8 6.8 0 0 1 5.2-1.4 7 7 0 0 1 5.9 7.7 6.6 6.6 0 0 1-2.4 4.3 2 2 0 0 1-.3.3 6.6 6.6 0 0 1-5 1.3 6.8 6.8 0 0 1-4.6-2.6 7 7 0 0 1-1.3-5 8.9 8.9 0 0 1 .5-2Z" style="fill:url(#linear-gradient1-30);fill-rule:evenodd"/><path d="M184.8 136a1 1 0 0 1 .2-.8 1.1 1.1 0 0 1 .8-.5 1.7 1.7 0 0 1 .9.2 1.8 1.8 0 0 0 .4.3 6 6 0 0 0 3.5.9 1.2 1.2 0 0 1 .8.3 1.4 1.4 0 0 1 .4.8 1.5 1.5 0 0 1-.3.9 1.3 1.3 0 0 1-.8.4 8.4 8.4 0 0 1-5.5-1.6 1.6 1.6 0 0 1-.4-.8s0-.1 0-.1Zm3.6-4.5a6.4 6.4 0 0 0 3 .6 1 1 0 0 1 1 .3 1.1 1.1 0 0 1 .2.8 1 1 0 0 1-.2.9 1.6 1.6 0 0 1-.9.3 9.2 9.2 0 0 1-3.4-.5 6.5 6.5 0 0 1-2-1.1 1 1 0 0 1-.4-.7 1.2 1.2 0 0 1 .2-1 1.1 1.1 0 0 1 .8-.4 1 1 0 0 1 .8.3 6.4 6.4 0 0 0 1 .5Z" style="fill:#293147;fill-rule:evenodd"/><path d="M188.4 131.5a6.4 6.4 0 0 1-1-.5 1 1 0 0 0-.8-.3 1.1 1.1 0 0 0-.8.5 1.2 1.2 0 0 0-.2.9 1 1 0 0 0 .5.7 6.5 6.5 0 0 0 2 1.1 3.7 3.7 0 0 1-1 1.3 1.8 1.8 0 0 1-.4-.3 1.7 1.7 0 0 0-1-.2 1.1 1.1 0 0 0-.7.5 1 1 0 0 0-.2.8l-.5-.1q-22-3.3-28.2-23.8a3.6 3.6 0 0 1 .4-2.9 3.4 3.4 0 0 1 2.1-1.7 3.7 3.7 0 0 1 2.9.3 3.6 3.6 0 0 1 1.7 2.2q4.8 16 22.2 18.6a3.6 3.6 0 0 1 2.4 1.5 3.7 3.7 0 0 1 .6 1.4Z" style="fill:url(#linear-gradient1-31);fill-rule:evenodd"/><path class="cls1-9" d="M272.7 137.5a9.5 9.5 0 0 1 7 3.2 9.7 9.7 0 0 1 2.6 7.1 9.5 9.5 0 0 1-3.2 7 10 10 0 1 1-13.6-14.7 9.6 9.6 0 0 1 7.2-2.6Z"/><path d="m272.6 135-40.8-1.6a12.3 12.3 0 0 0-9.1 3.4 12.8 12.8 0 0 0 8.2 22.1l40.7 1.6a12.3 12.3 0 0 0 9.2-3.3 12.8 12.8 0 0 0-8.2-22.2Zm-52.7-1.2a16.2 16.2 0 0 1 12.1-4.4l40.8 1.6a16.8 16.8 0 0 1-1.4 33.6l-40.7-1.6a16.8 16.8 0 0 1-10.8-29.1Z" style="fill-opacity:.3;fill:#fff;fill-rule:evenodd"/><path d="M420.9 504.7h10.6q.5 5.4 6.4 8.9c4.3 2.6 6.5 4.2 6.4 4.9a2.7 2.7 0 0 1-.3 1.4h-6.6q-4.6.2-6.5-1.7c-1.3-1.3-2.2-2-2.6-1.8v3.5h-4l-3.1-6.8a13 13 0 0 1-.3-8.4Zm-21 0h10.6a13.5 13.5 0 0 1-.3 8.4l-3 6.8h-4v-3.5c-.5-.1-1.4.5-2.7 1.8s-3.5 1.8-6.6 1.7h-6.5a2.4 2.4 0 0 1-.4-1.4c0-.7 2-2.3 6.3-4.9q6-3.5 6.6-8.9Z" style="fill:#79e2f2;fill-rule:evenodd"/><path class="cls1-50" d="M401 312a1 1 0 0 1 .9.3 1.4 1.4 0 0 1 .3.9l.2 2.6a1 1 0 0 1-.3.9 1.6 1.6 0 0 1-.9.4 1.2 1.2 0 0 1-.9-.4 1.4 1.4 0 0 1-.4-.8v-2.7a1 1 0 0 1 .2-.8 1.4 1.4 0 0 1 .9-.4Zm15-1.1a1.3 1.3 0 0 1 .9.3 1.2 1.2 0 0 1 .3.8l.2 2.7a1 1 0 0 1-.3.8 1.1 1.1 0 0 1-1 .4 1.3 1.3 0 0 1-.8-.2 1.2 1.2 0 0 1-.3-1l-.2-2.6a1.2 1.2 0 0 1 1.2-1.2Z"/><path d="M411.2 330.3a7.8 7.8 0 0 1 .4 1.5 4.8 4.8 0 0 1-4.6-.3c-.5-.3-1.3-.2-2.2.4a4.3 4.3 0 0 0-.5.4 3.7 3.7 0 0 1-3.4.8 9.9 9.9 0 0 1-2.8-1.5 6.5 6.5 0 0 0-2-.9l-2.8-.7q-3.6-.7-3.5-5c.1-2.8-.2-4.7-1-5.8-1.3-2.4-1.4-4.6-.3-6.4a3.8 3.8 0 0 0 .4-.9 6.6 6.6 0 0 0 .1-4.5l-.1-.4c-.6-1.9-.6-3.3 0-4.3a3 3 0 0 1 2-1.4 3.4 3.4 0 0 0 2.6-3.5c0-2.7 1.8-4.5 5.4-5.6q4.2-.9 5.1-2.5c1.8-2.9 4.8-3.4 8.8-1.7 2 1 3.6 1 4.7 0q3-2.5 6.4 1l.6.8a.8.8 0 0 0 .4.2v.1a1.3 1.3 0 0 0 .7.1 6.6 6.6 0 0 1 2.9-.3 5 5 0 0 1 2.6.9q1.2.7 2.5 3.7a6.4 6.4 0 0 0 4 3.9 3.7 3.7 0 0 1 2.8 3.9 8 8 0 0 0 2 5.4q2 2.4.9 4.7c-.8 1.6-.4 3.4 1.2 5.6s1.9 4.2.8 6.1a25.6 25.6 0 0 0-2 4.4c-.6 1.6-1.5 2.4-2.9 2.3a9 9 0 0 0-4.5 1 8.2 8.2 0 0 1-5.1.8 9.2 9.2 0 0 0-4-.1 19 19 0 0 1-2.1.5l-1.1.2-1.1.1h-.6a5 5 0 0 0-.6 0 1.6 1.6 0 0 1-.5-.1.4.4 0 0 0-.2-.1 1.6 1.6 0 0 1-.6-.1 3.3 3.3 0 0 1-1.1-1 .4.4 0 0 0-.1-.2 5.1 5.1 0 0 1-.4-1.2v-1.8l.2-.8a10.4 10.4 0 0 1 3.4-4.3.2.2 0 0 1 .1-.2q1.7-2-.4-4.9-2.3-2.4-.6-4.4a9.8 9.8 0 0 0 1.4-5.8 7.1 7.1 0 0 0-2.2-4.6q-4.3-4 0-7.7c-2.5 1.3-4.4 1.7-5.7 1.2q-1.4-.6-3.9 2c-1.6 1.8-3.2 2.3-4.8 1.5-1.2-.3-2.2.3-3 1.7a2.6 2.6 0 0 1-3.4 1.4c-1.4-.6-2.3.1-2.6 2.1l1.2 14q.6 6.9 5.6 9.2a15.7 15.7 0 0 0 7.3 1.2Z" style="fill:url(#linear-gradient1-32);fill-rule:evenodd"/><path d="M418.4 328.7a34.4 34.4 0 0 1-7.2 1.6h-.2a15.7 15.7 0 0 1-7.3-1.1q-5-2.3-5.7-9.2l-1.1-14c.3-2 1.1-2.7 2.5-2a2.6 2.6 0 0 0 3.5-1.6c.7-1.4 1.7-2 3-1.6 1.6.7 3.2.2 4.8-1.5s2.9-2.4 3.8-2c1.3.5 3.2.1 5.8-1.2q-4.3 3.6 0 7.7a7.1 7.1 0 0 1 2.2 4.6 9.8 9.8 0 0 1-1.4 5.8q-1.8 2 .5 4.4 2.1 3 .5 5a.2.2 0 0 0-.1 0 10.4 10.4 0 0 0-3.4 4.4ZM401 312a1.4 1.4 0 0 0-1 .3 1 1 0 0 0-.2 1l.1 2.6a1.4 1.4 0 0 0 .4.8 1.2 1.2 0 0 0 1 .4 1.6 1.6 0 0 0 .8-.4 1 1 0 0 0 .3-1l-.2-2.5a1.4 1.4 0 0 0-.3-1 1 1 0 0 0-.9-.2Zm4.8 13.9.4.2a2.9 2.9 0 0 0 1.1.5 8.8 8.8 0 0 0 2.2.2q3.3-.2 4.3-2.4l.3-.9a8.8 8.8 0 0 0 .3-.9v-.1a3 3 0 0 0 0-.5.8.8 0 0 0-.7-.9l-4.5.3-4.5.2a1 1 0 0 0-.5.2 1.2 1.2 0 0 0-.1 1.2 7.1 7.1 0 0 0 .5 1.3l.5.8a2.8 2.8 0 0 0 .6.8Zm10.3-15a1.2 1.2 0 0 0-1.2 1.3l.1 2.6a1.2 1.2 0 0 0 .4.9 1.3 1.3 0 0 0 .8.2 1.1 1.1 0 0 0 .9-.3 1 1 0 0 0 .3-1l-.1-2.6a1.2 1.2 0 0 0-.4-.8 1.3 1.3 0 0 0-.9-.3Z" style="fill:url(#linear-gradient1-33);fill-rule:evenodd"/><path d="M431.5 504.7h-10.6q1.3-4 0-17.6t.6-20.8q1.8-7.2-1-18.6h14.8a375 375 0 0 0-3.9 55.9v1.1ZM370 340a.6.6 0 0 0-.3 0l-.3.2-5.3 2.4h-.1q-2.7.4-4.2-5.3l-.8-3-.8-3-.4-1.5a1 1 0 0 1 .1-.9 1.1 1.1 0 0 1 .8-.6 1.2 1.2 0 0 1 .9.2 1.1 1.1 0 0 1 .5.7 1.3 1.3 0 0 1 .2-1 1.1 1.1 0 0 1 .7-.5 1.3 1.3 0 0 1 1 0 1.4 1.4 0 0 1 .6.8 1.3 1.3 0 0 1 .1-1 1.2 1.2 0 0 1 .8-.5 1.3 1.3 0 0 1 1 .1 1.2 1.2 0 0 1 .5.7l-2-6.8a1 1 0 0 1 .1-.8 1.1 1.1 0 0 1 .8-.7 1.2 1.2 0 0 1 .9.2 1.3 1.3 0 0 1 .6.7l2 7.6c1-.4 1.8-.1 2 .8l1.3 4.4a10.6 10.6 0 0 1 0 4.7 2 2 0 0 0 0 .3 6.7 6.7 0 0 1-.7 1.8Z" style="fill:url(#linear-gradient1-34);fill-rule:evenodd"/><path d="M430 381a21 21 0 0 0-1.7 1.5v.1a3.9 3.9 0 0 0-.4 4.5 2.5 2.5 0 0 0 1.4 2.4c0 .7.6 1.4 2 2 .1.6.7 1 1.8 1a5.8 5.8 0 0 0 1-.2l.3 1.9a72 72 0 0 1-11-1.1q-11.4-2.3-10.2-15.6v-.1a146.8 146.8 0 0 1 4.5-24.6q3-10 4.5-17.4l.1-.8.2-.6a5.9 5.9 0 0 1 .7 0 2.1 2.1 0 0 1 .4 0 2.2 2.2 0 0 0 .5.1 19.8 19.8 0 0 1 4.7 1.4 24.8 24.8 0 0 1 3.8 1.9 78.5 78.5 0 0 1 7.5 4.8q9.3 6.2 18.6 14a13.8 13.8 0 0 1 4.2 6q1.3 4.3-3.7 8.3L443.8 383c-.6.4-1 .5-1.5.2l-.1-.3-4.2-5-.2-.3a.3.3 0 0 1 0-.1c-.3-.5-.1-.9.4-1.3l9.7-7.5q4.3-3.2 4-4 0-2.6-13.1-10a10.1 10.1 0 0 1-1.3-.7l-6.4-3.4-5 18.3a9 9 0 0 0 .2 5.4 10.8 10.8 0 0 0 1.2 2.6Zm-19-47.7a1.6 1.6 0 0 0-.2.6v.1q-2 6.6-2.9 19a168.4 168.4 0 0 0 .4 24.5l.2 1.6q1.2 13-16.5 13.3a47.9 47.9 0 0 1 4.5-14.9l1.7-3 .1-.1.7-1.4a23 23 0 0 0 1.9-3.6q.7-1.8-.5-8a34.8 34.8 0 0 1-1.8-10.4l-.5.9a8.2 8.2 0 0 1-.4.7 58 58 0 0 1-3.4 5l-.9 1a3 3 0 0 1-.4.4 31 31 0 0 1-12 8.7 8.9 8.9 0 0 1-2.5.4q-4.4.3-7.2-5.6l-8.3-18c-.3-.7-.2-1.2.2-1.5l.2-.1.7-.3 5.3-2.4.3-.2a.6.6 0 0 1 .3 0c.4 0 .7.2 1 .7l4.8 11.2q2 5 3 5 3.7 1.5 8.7-6.4t5.2-8.2a24 24 0 0 1 5-5.4 11 11 0 0 1 3-1.5.9.9 0 0 0 .3-.1Z" style="fill:url(#linear-gradient1-35);fill-rule:evenodd"/><path d="M409.1 321.4a6.4 6.4 0 0 0-3.4 4.5 2.8 2.8 0 0 1-.6-.8l-.5-.8a7.1 7.1 0 0 1-.5-1.3 1.2 1.2 0 0 1 .1-1.2 1 1 0 0 1 .5-.2Z" style="fill:url(#linear-gradient1-36);fill-rule:evenodd"/><path d="M405.8 325.9a6.4 6.4 0 0 1 3.3-4.5l4.5-.3a.8.8 0 0 1 .8.9 3 3 0 0 1 0 .4v.2a8.8 8.8 0 0 1-.3.9l-.4.8q-.9 2.2-4.2 2.4a8.8 8.8 0 0 1-2.2-.1 2.9 2.9 0 0 1-1.2-.5Z" style="fill:url(#linear-gradient1-37);fill-rule:evenodd"/><path d="M411.6 331.8a7.8 7.8 0 0 0-.4-1.5 34.4 34.4 0 0 0 7.2-1.6v1.9a5.1 5.1 0 0 0 .3 1.1.4.4 0 0 1 .2.2 3.3 3.3 0 0 0 1 1 1.6 1.6 0 0 0 .6.2.4.4 0 0 1 .2 0 .1.1 0 0 1 0 .1 1.6 1.6 0 0 0 .5 0 5 5 0 0 1 .7.1h.5v1.4a.5.5 0 0 1-.3.2q-3.6 3.2-7.7 2.6a4 4 0 0 1-3.6-3.5.2.2 0 0 1 0-.1 1.6 1.6 0 0 1 .2-.6.7.7 0 0 0 .4-.4 1.3 1.3 0 0 0 .2-1Z" style="fill:url(#linear-gradient1-38);fill-rule:evenodd"/><path d="M410.8 447.7H396a310.8 310.8 0 0 1-4-55.3q17.7-.2 16.4-13.3l-.1-1.6a168.4 168.4 0 0 1-.4-24.5q.8-12.4 2.9-19a4 4 0 0 0 3.6 3.5q4 .7 7.7-2.6a.5.5 0 0 0 .2-.2l-.1.7q-1.5 7.4-4.5 17.4a146.8 146.8 0 0 0-4.5 24.6v.2q-1.2 13.2 10.2 15.5a72 72 0 0 0 11 1.1 187.2 187.2 0 0 1 .8 53.5h-24.4Z" style="fill:url(#linear-gradient1-39);fill-rule:evenodd"/><path d="M430 381c1-.6 2-1.2 3-2q2.8-2 5-1l4.2 5c.3 1.1-1.3 3-4.7 5.5q1 2.4-1.5 3.5a9.6 9.6 0 0 1-2 .3 5.8 5.8 0 0 1-1 0c-1 0-1.6-.2-1.8-.8-1.3-.7-2-1.3-1.9-2a2.5 2.5 0 0 1-1.4-2.5 3.9 3.9 0 0 1 .4-4.4v-.1a21 21 0 0 1 1.7-1.4Z" style="fill:url(#linear-gradient1-40);fill-rule:evenodd"/><path d="M410.4 504.7H400v-1.1a379.8 379.8 0 0 0-3.9-55.9h14.8q-2.7 11.4-1 18.6 1.7 7.1.5 20.8t.1 17.6Z" style="fill:url(#linear-gradient1-41);fill-rule:evenodd"/><path class="cls1-9" d="M358.4 423.1q.7 6.2-3 14.7c-1 2.4-1.7 2.2-2.4-.6a6 6 0 0 0-5.3-4.9q-4.6-.7-3.4-2.1 6.8-7.3 12.5-8c1-.2 1.6.1 1.6 1Zm-30.8 5.5a56.6 56.6 0 0 1 3.3-10c1.1-2.9 2-3.7 2.4-2.4q1.1 3.8-.2 11.7a21.9 21.9 0 0 0-4.6.5q-.5 0-.9.2Zm5 17.3c-1.1-1.2-1.5-2-1-2.2.1-.1.8 0 1.9.5a5.5 5.5 0 0 1-.2.7 1.7 1.7 0 0 1-.7 1.1Zm-14.4-3.9.5-1.7c.1-.5.4-.6.6-.2a6 6 0 0 1-.4 1 2.9 2.9 0 0 1-.7.9Z"/><path d="M314.1 444a10.8 10.8 0 0 1 2.5.8.3.3 0 0 1 .2 0l.5.3c1.3.7 1.4 1.5.4 2.5a4 4 0 0 1-3.8 1.1 2 2 0 0 1-1.8-1.9 3.6 3.6 0 0 1-.1-.7v-1a1 1 0 0 1 .2-.4 1.2 1.2 0 0 1 1.3-.7h.1Zm5 12a15 15 0 0 1-6.1-1.4 3 3 0 0 1-1.8-3.4q0 2.8 6 3.7a34 34 0 0 0 10.5.3q4.6-.7-2.5 3.4a4.3 4.3 0 0 0 1.1-1q1.8-1.8-4.2-1.5h-3Z" style="fill:#292c36;fill-rule:evenodd"/><path d="M347.6 515.8a5 5 0 0 0-.7 3l.2 1h-8.8c1.1-.2 1.8-1.3 2.1-3.2a4 4 0 0 1 .1-.5 6.1 6.1 0 0 1 .1-1l.4-2.2a19 19 0 0 0 6.6 2.9Z" style="fill:#949da4;fill-rule:evenodd"/><path d="M350.9 509.2a3.4 3.4 0 0 1 .3 2.7 3.6 3.6 0 0 1-.8 1.2l-.2.3a9 9 0 0 1-.8.6 6 6 0 0 0-1.8 1.8 19 19 0 0 1-6.6-2.9l.5-2.6 1-6.9a19.5 19.5 0 0 0 8.4 5.8Z" style="fill:#c0c6cb;fill-rule:evenodd"/><path d="M361 461.8q-3.1-2.7-11.3-4.5t-6.8-3.4q6.4-14.1-1.2-19.8-8.3-4.7-15 .9.6-4.3-2.3-5a14.8 14.8 0 0 1 1.9-1 4.9 4.9 0 0 1 1.1-.3.4.4 0 0 1 .2-.1l.9-.2a21.9 21.9 0 0 1 4.6-.5 29.5 29.5 0 0 1 6 .6l2.3.5a7.3 7.3 0 0 0 .8.1l1.6-1.9q6.5-7.3 15.5-7a1.9 1.9 0 0 1 .6.1.9.9 0 0 1 .3 0c1.2.4 1.8 1.5 1.8 3.2a162.2 162.2 0 0 1-2.5 25.4l-.4 4.7c-.4 3.4.2 6.1 1.9 8.2Zm-2.5-38.7c0-.8-.6-1.1-1.7-1q-5.6.8-12.5 8.1-1.2 1.4 3.4 2.1a6 6 0 0 1 5.4 5c.6 2.7 1.4 3 2.4.5q3.6-8.5 3-14.7Z" style="fill:url(#linear-gradient1-42);fill-rule:evenodd"/><path d="M333 427.9q1.4-7.9.3-11.7c-.4-1.2-1.3-.5-2.4 2.3a56.6 56.6 0 0 0-3.3 10.1.4.4 0 0 0-.2 0 4.9 4.9 0 0 0-1.1.5q3-11 5.5-13.8a5.3 5.3 0 0 1 .5-.5q2-1.7 4.4 2.5a45.8 45.8 0 0 1 4.7 11.7 28.6 28.6 0 0 0-5.1-1l-3.2-.1Z" style="fill:url(#linear-gradient1-43);fill-rule:evenodd"/><path d="m348.5 469.1-30 1.3a68 68 0 0 0-5.8-9.9q-4.4-6.7-4-9a15.4 15.4 0 0 1 3.3-5.8v.4a3.6 3.6 0 0 0 .1.7 2 2 0 0 0 1.7 1.9 4 4 0 0 0 3.9-1c1-1 .9-2-.4-2.6l-.5-.3a.3.3 0 0 0-.2 0 10.8 10.8 0 0 0-2.5-.7 1.2 1.2 0 0 0-.3 0 11.1 11.1 0 0 0 2.3-3.1q2.6-8 8.3-11 2.8.7 2.2 5 6.7-5.6 15-1 7.6 5.8 1.2 19.9-1.5 1.8 6.8 3.4t11.3 4.5a8 8 0 0 0 .7.8 7.6 7.6 0 0 1-3.5 1.7l3.5 1a26 26 0 0 1-13 3.8ZM332.6 446a1.7 1.7 0 0 0 .7-1 5.5 5.5 0 0 0 .2-.7 6 6 0 0 0-.3-1.8c-.2-1-.7-1.4-1.4-1.5a3.3 3.3 0 0 0-2.1.9 3.2 3.2 0 0 0-1.3 1.7 2.2 2.2 0 0 0 0 1.7 2.7 2.7 0 0 0 1.6 1 3.6 3.6 0 0 0 2 0Zm-14.4-4a2.9 2.9 0 0 0 .7-1 6 6 0 0 0 .4-1l.4-1.3c.3-.8.2-1.2 0-1.1a2.4 2.4 0 0 0-1.4 1 8.6 8.6 0 0 0-1.3 1.9 4.4 4.4 0 0 0-.5 1.4.7.7 0 0 0 .3.7c.3.1.6 0 1-.3Zm-5.2 12.6 1.6 4c.9 2.2 2.6 3 5.2 2.2a40.2 40.2 0 0 0 4.7-1.9 3 3 0 0 0 .4-.2h.2q7.2-4.1 2.6-3.4a34 34 0 0 1-10.5-.3q-6-1-6-3.7a3 3 0 0 0 1.8 3.3Z" style="fill:url(#linear-gradient1-44);fill-rule:evenodd"/><path d="M333.5 444.2c-1.1-.4-1.8-.6-2-.5-.4.2 0 1 1.1 2.3l-.6.2a3.6 3.6 0 0 1-2 0 2.7 2.7 0 0 1-1.5-1 2.2 2.2 0 0 1-.1-1.6 3.2 3.2 0 0 1 1.3-1.8 3.3 3.3 0 0 1 2.1-.9c.7 0 1.2.6 1.4 1.5a6 6 0 0 1 .3 1.8Z" style="fill:url(#linear-gradient1-45);fill-rule:evenodd"/><path d="m334.2 474-15.5.8a.5.5 0 0 1-.6-.5l-.2-3.3c0-.4.1-.6.5-.6l30.1-1.3.2 3.4a.5.5 0 0 1-.5.6Z" style="fill:url(#linear-gradient1-46);fill-rule:evenodd"/><path d="M368.3 489.3a13.3 13.3 0 0 1 5 11.1 22.2 22.2 0 0 0-7.3-7.4 15.7 15.7 0 0 0-8.2-2q-5.4 0-7.8 2.4-4.6 4.2.9 15.8a19.5 19.5 0 0 1-8.4-5.8l-1 7-2.7 3-2.4-3.3-3 2.8-1.5-3-2.8 2.8-1.1-3.2.2-1.5v-1.6a4.1 4.1 0 0 0 0-.9 20.9 20.9 0 0 0-.3-3.3 16.2 16.2 0 0 0-.5-2.3 24.9 24.9 0 0 1-.7-3.1q-1.3-8.5 1.6-14a48.8 48.8 0 0 1 5.9-9l14-.7q3.5 7.5 16 13.7a21.4 21.4 0 0 1 4 2.5Z" style="fill:url(#linear-gradient1-47);fill-rule:evenodd"/><path d="M367.9 520q-1.4-1.4 5-3.8 3.8-.9 8.3-7t1.8-4.8q-4 1.8-2-3.8c1.4-3.7 1.4-5.1-.1-4.3s-3.4-1.5-5.6-7.2q-3.8-8.8-6.8-11.9a23.8 23.8 0 0 1 4.8 3.7 54.4 54.4 0 0 1 8.2 9.2c.9 1.3 1.8 1.3 2.9 0q1-.2 3.3 4.4t-1.3 11.3a6.2 6.2 0 0 0 0 4.9q.9 2.7-8 4.5c-2.3.5-3.3 1.3-3 2.5.4 1.3-1.7 2.1-6.2 2.2Z" style="fill:url(#linear-gradient1-48);fill-rule:evenodd"/><path d="M319.3 440.1c-.2-.4-.5-.3-.6.3l-.5 1.6-.4.3c-.4.4-.7.5-1 .4a.7.7 0 0 1-.3-.7 4.4 4.4 0 0 1 .5-1.4 8.6 8.6 0 0 1 1.3-2 2.4 2.4 0 0 1 1.3-1c.4 0 .4.4.2 1.2l-.5 1.3Z" style="fill:url(#linear-gradient1-49);fill-rule:evenodd"/><path d="M314.6 458.5c.1-1.2 1.6-2 4.4-2.4h3.1q6-.3 4.2 1.6a4.3 4.3 0 0 1-1.1.9.1.1 0 0 0-.1 0h-.2a3 3 0 0 1-.4.3 40.2 40.2 0 0 1-4.7 1.9c-2.6.8-4.3 0-5.2-2.3Z" style="fill:url(#linear-gradient1-50);fill-rule:evenodd"/><path d="m314.6 458.5-1.6-4a15 15 0 0 0 6 1.6c-2.8.4-4.3 1.2-4.4 2.4Z" style="fill:url(#linear-gradient1-51);fill-rule:evenodd"/><path d="m318.7 474.8 15.5-.9a48.8 48.8 0 0 0-5.8 8.8q-3 5.6-1.6 14a24.9 24.9 0 0 0 .6 3.2 16.2 16.2 0 0 1 .6 2.3 20.9 20.9 0 0 1 .3 3.3q-7.7-9.6-9.3-25.3v-.7l-.1-1.7a1.2 1.2 0 0 0 0-.2l-.2-1.9v-.9Z" style="fill:url(#linear-gradient1-52);fill-rule:evenodd"/><path d="M319 480.2q1.6 15.7 9.3 25.3a4.1 4.1 0 0 1 0 .9v1.6a58.6 58.6 0 0 1-.7 4l-1.4-2.2-2.4 3.6-1.3-4.4a75.3 75.3 0 0 0-1.7-12.9 141 141 0 0 1-1.8-15.9Z" style="fill:url(#linear-gradient1-53);fill-rule:evenodd"/><path d="M327.6 512a28.9 28.9 0 0 1-1.9 4.7c-1.1 2 .2 3.1 4 3.2h-6.5q-2.6-.2-1.4-3.5a40.4 40.4 0 0 0 .7-7.4l1.4 4.4 2.4-3.6Z" style="fill:url(#linear-gradient1-54);fill-rule:evenodd"/><path d="m341 513-.4 2.2a6.1 6.1 0 0 0 0 .9 4 4 0 0 0-.2.5c-.3 2-1 3-2.1 3.3h-8.6c-3.8-.1-5.2-1.2-4-3.2a28.9 28.9 0 0 0 1.8-4.8l.5-2.4 1.1 3.2 2.8-2.9 1.5 3.1 3-2.8 2.3 3.3 2.8-3-.5 2.5Z" style="fill:url(#linear-gradient1-55);fill-rule:evenodd"/><path d="M368.8 514.5q4.4-8 4.5-14a13.3 13.3 0 0 0-5-11.2q2.2-3.4.2-12 3 3 6.8 11.8 3.4 8.6 5.6 7.3c1.5-1 1.6.5.1 4.2s-.7 5 2 3.8q2.9-1.2-1.7 4.9t-8.3 7q-6.4 2.3-5.1 3.6h-2.3c.9-.2 1.7-1.3 2.4-3a2.3 2.3 0 0 1 .2-.4l.6-2Z" style="fill:url(#linear-gradient1-56);fill-rule:evenodd"/><path d="M351.2 511.9a3.4 3.4 0 0 0-.3-2.7q-5.5-11.6-1-15.9 2.5-2.2 7.9-2.4a15.7 15.7 0 0 1 8.2 2.1 22.2 22.2 0 0 1 7.3 7.4q-.1 6-4.5 14.1l-1.3 1.1-1.9-2.2-2.1 1.6-2.7-2.1-3.6 1.7-2-2.4-4 1.4Z" style="fill:url(#linear-gradient1-57);fill-rule:evenodd"/><path d="m347.1 520-.2-1a5 5 0 0 1 .7-3.2 6 6 0 0 1 1.8-1.7 9 9 0 0 0 .8-.7l.2-.2a3.6 3.6 0 0 0 .8-1.3v1.8l4-1.4 2 2.3 3.6-1.6 2.7 2 2.2-1.6 1.9 2.3 1.2-1.2a28 28 0 0 1-.6 2 2.3 2.3 0 0 0-.2.4c-.7 1.8-1.5 2.9-2.4 3.1Z" style="fill:url(#linear-gradient1-58);fill-rule:evenodd"/><path style="fill-opacity:.3;fill:#017fc9;fill-rule:evenodd" d="M83.2 353.8h18.2l-7.5-11.9.2-22.3-21.8 9.7 10.9 24.5z"/><path d="M137.5 329.4q8 .3 8.2-2.4c.2-1.4 0-2-.6-1.6a3.8 3.8 0 0 1-1 .4q.7 2.5-2.9 2.8c-2.4.2-3.7.5-3.7.8Z" style="fill:#212f4c;fill-rule:evenodd"/><path class="cls1-50" d="M139.9 315a.8.8 0 0 0-.3.6.8.8 0 0 0 .2.5s0 0 0 .2a2.2 2.2 0 0 0 .5.2h2.4a.8.8 0 0 0 .5-.2.8.8 0 0 0 .3-.7.8.8 0 0 0-.3-.6.7.7 0 0 0-.5-.2h-2.2a.8.8 0 0 0-.6.2Z"/><path d="M136.7 304.5a58.3 58.3 0 0 0 8.4.2q14-.4 18 2.2t1.5 12.6a38.1 38.1 0 0 0 3.3-7.5 8.5 8.5 0 0 0 .4-1.6q1.2-6.7-.4-10.6-2-5-8.7-5.7a49.9 49.9 0 0 0-8 0l-3.5.4q-14 1.1-2.2-5.2-8.4 1.7-13.3 5.3l-1 .8-1.3 1.4a4.2 4.2 0 0 0-.5.5q-3.2 3.6.5 5.5a14.3 14.3 0 0 0 2.7 1 30.1 30.1 0 0 0 4 .7Z" style="fill:url(#linear-gradient1-59);fill-rule:evenodd"/><path d="m137 314.2-.3-9.7a58.3 58.3 0 0 0 8.4.2q8.5.5 7.9 12.8-.4 4.7-7.6 4.7h-8Zm2.6 1.4a.8.8 0 0 0 .2.6s0 0 .1 0a2.2 2.2 0 0 0 .4.3h2.4a.8.8 0 0 0 .6-.2.8.8 0 0 0 .3-.7.8.8 0 0 0-.3-.6.7.7 0 0 0-.6-.2h-2.2a.8.8 0 0 0-.6.2.8.8 0 0 0-.3.6Zm2.7 10.5H138c-.6 0-.8-.6-.7-2h8.7c1.4 0 1.4 2.2.2 6.3-1 2.8-2 3.4-3.1 1.8a3.6 3.6 0 0 0-3.2-1.4h-2.4v-1.4q8 .4 8.2-2.4c.2-1.4 0-2-.6-1.6a3.8 3.8 0 0 1-1 .4 13.4 13.4 0 0 1-1.9.3Z" style="fill:url(#linear-gradient1-60);fill-rule:evenodd"/><path d="m137.3 322.2-.3-8-2.6 4.4q-1.6 2.6 2.9 3.6Z" style="fill:url(#linear-gradient1-61);fill-rule:evenodd"/><path d="M144.9 340.4a7.6 7.6 0 0 1 1.8-2l1.8-1.3a33.4 33.4 0 0 1 4.3-2.4l2.1-1q1.5-4.9 1.9-15.9v-.3a5.8 5.8 0 0 1 1.5-3.8 2.8 2.8 0 0 1 2-1 2.9 2.9 0 0 1 2.6 1.2 5.4 5.4 0 0 1 0 6.4 4.3 4.3 0 0 1-2.9 1.4h-.1c.1 3.6 1 5.5 2.7 5.7a28.8 28.8 0 0 1 2-8q2.4-10-1.5-12.5t-18-2.2q8.5.5 7.9 12.8-.4 4.7-7.6 4.7h-8.1v1.9h8.7c1.4 0 1.4 2.2.2 6.3-1 2.8-2 3.4-3.1 1.8a3.6 3.6 0 0 0-3.2-1.4h-2.4q-.6 11.2 6.4 9.9Z" style="fill:url(#linear-gradient1-62);fill-rule:evenodd"/><path d="m91.5 340.8 6.8-4a20 20 0 0 1-1.3-5.6l-.8-7.7a1.1 1.1 0 0 0 0-.3 4.3 4.3 0 0 0-1.9-3l-4.9-.6-2.6-.4a2.2 2.2 0 0 0-1 .4 1.5 1.5 0 0 0-.8 1.2 1.6 1.6 0 0 0 0 .4 1.4 1.4 0 0 0 .4.8.7.7 0 0 1 .1.3h-.4a4.6 4.6 0 0 1-.4.4 1.4 1.4 0 0 0-.6 1 1.4 1.4 0 0 0 .2 1.3 2.7 2.7 0 0 0 .4.6.6.6 0 0 1 .4.2 1.4 1.4 0 0 0-.8 1.3 1.1 1.1 0 0 0 .1.8 2.5 2.5 0 0 0 .7.6 2.7 2.7 0 0 0-.5.8 3 3 0 0 0 .4 1 1.5 1.5 0 0 0 1 .7 2.9 2.9 0 0 0 1.2.2 25.4 25.4 0 0 1 1.1 5.9 6.8 6.8 0 0 0 .2.8 4.4 4.4 0 0 0 3 2.9Z" style="fill:url(#linear-gradient1-63);fill-rule:evenodd"/><path d="M85.4 322a.7.7 0 0 1 .1.4h-.4a4.6 4.6 0 0 1-.4.3 1.4 1.4 0 0 0-.6 1.1 1.4 1.4 0 0 0 .2 1.3 2.7 2.7 0 0 0 .4.5.6.6 0 0 1 .4.2 1.4 1.4 0 0 0-.8 1.3 1.1 1.1 0 0 0 .1.8l-4.6 1.8a2.7 2.7 0 0 1-1.3.2h-1.2a5.7 5.7 0 0 1-1.4-4.6l.7-.5a3.1 3.1 0 0 1 1-.7l7.4-2.8a1.4 1.4 0 0 0 .4.8Zm16.3-7a3 3 0 0 1 2.3.2 2.9 2.9 0 0 1 1.6 1.6 3 3 0 0 1-.1 2.3 2.8 2.8 0 0 1-1.7 1.6l-7.6 2.9a1.1 1.1 0 0 0 0-.4 4.3 4.3 0 0 0-1.9-2.8l-4.9-.7Z" style="fill:url(#linear-gradient1-64);fill-rule:evenodd"/><path d="M151.4 404.2q17.3-2 28.1-5.3c3.1-1 5.7-1.2 7.7-.6q5.6-3.5.7-20.5a414.9 414.9 0 0 1-3.6-12.7q-2.8-10.7-5.2-21.6a20.9 20.9 0 0 0-.6-2.4l-2.9-.2v.6a10.3 10.3 0 0 1-.3 1.6 10 10 0 0 1-.4 1.7 5.9 5.9 0 0 1-.4 1.2 6 6 0 0 1-.7 1.2 3.4 3.4 0 0 1-.7 1q-9 6.4-19.4.6l-2.8-1.7a.3.3 0 0 0-.1 0 6.7 6.7 0 0 0-2-1 7.8 7.8 0 0 0-2.2-.3 13 13 0 0 0-2.9.5l-26.7 7.2a4.1 4.1 0 0 1-4.5-1.7l-8-10.2c-1-1.5-2-2-3-1.9l-8.9 5.2c-.6.5-.4 1.5.6 3l11.4 15.2q4.1 5.6 13 3.7l21-3.8c1.3-.2 2.2.4 2.8 2a11.4 11.4 0 0 1 .8 3.3q.6 5.7.8 12.6a69.5 69.5 0 0 0 1.7 13.6 14.4 14.4 0 0 0 6.7 9.7Z" style="fill:url(#linear-gradient1-65);fill-rule:evenodd"/><path d="m92.6 344.9 8.8-5.2-1.3-2.2a1.4 1.4 0 0 0-1.8-.7l-6.8 4c-.8.5-1 1.1-.3 2Z" style="fill:url(#linear-gradient1-66);fill-rule:evenodd"/><path d="M77.3 329.9a5.7 5.7 0 0 1-1.4-4.6l-3.1 2.8c-.5.4-.7.8-.5 1.2s.5.5 1.2.6Z" style="fill:url(#linear-gradient1-67);fill-rule:evenodd"/><path d="m155 333.7-2.3 1a33.4 33.4 0 0 0-4.2 2.4l-1.8 1.4a7.6 7.6 0 0 0-1.8 2 8.8 8.8 0 0 0-1.2 5.8 13 13 0 0 1 2.9-.5 7.8 7.8 0 0 1 2.1.3 6.7 6.7 0 0 1 2 1 .3.3 0 0 1 .2 0l2.8 1.7q10.4 5.8 19.4-.6a3.4 3.4 0 0 0 .7-1 6 6 0 0 0 .7-1.3 5.9 5.9 0 0 0 .4-1 10 10 0 0 0 .4-1.8 10.3 10.3 0 0 0 .3-1.6v-.7a17.6 17.6 0 0 0-.2-3.1l-.3-1.8a10.2 10.2 0 0 0-3.3-5.2 4.2 4.2 0 0 0-2.4-1 13.4 13.4 0 0 0-4.8.5 18.5 18.5 0 0 0-2 .5l-2.8 1-2.2.9Z" style="fill:url(#linear-gradient1-68);fill-rule:evenodd"/><path d="m208.5 401.3 9.9-3q1.4-.4 0-4.2-6.6-24-12.7-30l-20.2-18.3a28.5 28.5 0 0 0-3.3-3c-1.4-1.2-3.6-1.9-6.6-2v.1l2.9.2a20.9 20.9 0 0 1 .6 2.4q2.4 10.8 5.2 21.5l12.7 9.2q7.6 13.8 8.4 20.4t3 6.7Z" style="fill:url(#linear-gradient1-69);fill-rule:evenodd"/><path d="m155 333.7 2.7-1.2c.8-.3 1.5-.5 2.2-.9l2.8-1a1.6 1.6 0 0 1 0-.4v-2.9c-1.7-.1-2.6-2-2.7-5.6h.1a4.3 4.3 0 0 0 2.8-1.5 5.4 5.4 0 0 0 .1-6.3 2.9 2.9 0 0 0-2.7-1.3 2.8 2.8 0 0 0-1.9 1 5.8 5.8 0 0 0-1.5 3.8v.4q-.5 11-2 16Z" style="fill:url(#linear-gradient1-70);fill-rule:evenodd"/><path d="M187.2 398.3c-2-.7-4.5-.4-7.7.6q-10.8 3.3-28 5.3a40.1 40.1 0 0 0 .6 6.2 1.7 1.7 0 0 0 1.5 1.7.5.5 0 0 1 .3 0 3.7 3.7 0 0 0 1.2 0q8.4-1.2 16.6-3.2 11.4-2.6 15.3-2.8a1.5 1.5 0 0 0 .7-.2 3.5 3.5 0 0 1 .4-.1c.8-.5 1-1.2.6-2.3a27.4 27.4 0 0 1-1.5-5.2Z" style="fill:url(#linear-gradient1-71);fill-rule:evenodd"/><path d="M140.3 508.8a1.3 1.3 0 0 0 1 .2l6.4-1.3 2.6-.6c1.1-.3 1.5-1 1.1-2 0-.5-.2-1-.4-1.5l-1.2-4-.7-2.1v-.3L148 493a137.5 137.5 0 0 1-3.7-22.6A16.1 16.1 0 0 1 149 457l15-14a90.2 90.2 0 0 1 19.3-13.8q6.6-3.6 6.2-10.9a81.4 81.4 0 0 0-1.8-12.5 1.5 1.5 0 0 1-.7.2q-4 .2-15.3 2.8-8.2 2-16.6 3.3a3.7 3.7 0 0 1-1.2 0 .5.5 0 0 0-.2-.1v.7q-15.1 21.6-23 39.1l-3 6.8a16 16 0 0 0 0 9.3 2.6 2.6 0 0 0 0 .5l1.3 5q2.6 10 5.6 19.5l1.4 4.2a.4.4 0 0 0 0 .3l.8 2.2 1.4 3.9q.7 2.3 1.6 4.4a1 1 0 0 0 .5.8Z" style="fill:url(#linear-gradient1-72);fill-rule:evenodd"/><path d="m218.4 398.4-10 3 .6 2.5a1.7 1.7 0 0 0 .9 1.3 2.1 2.1 0 0 0 .8 0l7.5-2.5a.7.7 0 0 0 .3-.2 1.4 1.4 0 0 0 .4-1.6Z" style="fill:url(#linear-gradient1-73);fill-rule:evenodd"/><path d="m212.4 415.5-.8-2.2a2 2 0 0 1 0-1.4 2.1 2.1 0 0 1 1.1-.8l6.8-2.2a1.5 1.5 0 0 1 2.2 1l-1.2-3.4a8.7 8.7 0 0 0-2-4 .7.7 0 0 1-.3.2l-7.5 2.4a2.1 2.1 0 0 1-.8 0c-.7.8-.8 2.2-.4 4l.7 4c.4 1.5 1 2.3 2.2 2.4Z" style="fill:url(#linear-gradient1-74);fill-rule:evenodd"/><path d="M221.7 409.9a1.5 1.5 0 0 0-2.2-1l-6.8 2.1a2.1 2.1 0 0 0-1 .9 2 2 0 0 0 0 1.3l.7 2.3.1.5a1.5 1.5 0 0 0 2.2 1l6.8-2.2a1.5 1.5 0 0 0 1-2.1Z" style="fill:url(#linear-gradient1-75);fill-rule:evenodd"/><path d="M205.7 509.8c.4.8 1 1 2.1.6q3.7-.8 7-1.9l2.6-.9a.7.7 0 0 0 .6-.9 1.3 1.3 0 0 0-.3-.7l-1-1.7a51.8 51.8 0 0 1-3.8-6.8.5.5 0 0 1 0-.3c-.9-1.4-1.6-2.8-2.3-4.2a242.2 242.2 0 0 1-10.3-25q-3-7.8-5.3-16a151.4 151.4 0 0 1-5.4-32 13.8 13.8 0 0 0-.1-1.5q.4 7.2-6.2 10.9a90.2 90.2 0 0 0-19.3 13.8l22.1 32.7a2.8 2.8 0 0 1 .4.7l1.3 2q4.2 6.5 8.4 14.4l2.3 4.2a2 2 0 0 0 .1.3l1.3 2.2 5.8 10Z" style="fill:url(#linear-gradient1-76);fill-rule:evenodd"/><path d="M148.5 512a6 6 0 0 0-3.7 2q-1.4 1.3-3-1.4l-1.5-3.8a52.6 52.6 0 0 1-9.3 5l-4 1.4a3.3 3.3 0 0 0-1.8 1.8 4.8 4.8 0 0 0-.4 1c.8.6 2.3.8 4.6.8h18c2 0 3.1-.2 3.4-.7a7 7 0 0 0 0-.7l-.3-1.5c-.5-2.2-1.2-3.5-2-4Z" style="fill:url(#linear-gradient1-77);fill-rule:evenodd"/><path d="M150.8 518.1c-.3.5-1.4.7-3.4.7h-18a10 10 0 0 1-4.6-.7q-.3 1.7 2.4 1.9h21.2q2.5 0 2.4-1.9Z" style="fill:url(#linear-gradient1-78);fill-rule:evenodd"/><path d="m140.3 508.8 1.5 3.8q1.6 2.7 3 1.3a6 6 0 0 1 3.6-2l-.7-4.2-6.4 1.3a1.3 1.3 0 0 1-1-.2Z" style="fill:url(#linear-gradient1-79);fill-rule:evenodd"/><path d="M207.8 510.4c-1 .4-1.7.2-2-.6a55 55 0 0 1-8 4l-3.9 1.4a4.9 4.9 0 0 0-1.2.7 4.6 4.6 0 0 0-1 2.2c.8.5 2.3.8 4.6.7h18c2 0 3-.2 3.3-.7v-.7a1.8 1.8 0 0 1-.1-.5q-.8-4.1-2.1-5a5.7 5.7 0 0 0-3.7 2q-1.3 1.4-3-1.3Z" style="fill:url(#linear-gradient1-80);fill-rule:evenodd"/><path d="M217.6 518.1c-.2.5-1.3.7-3.2.7h-18.1c-2.3 0-3.8-.2-4.6-.7-.3 1.1.6 1.8 2.4 1.9h21.2c1.7 0 2.4-.6 2.3-1.9Z" style="fill:url(#linear-gradient1-81);fill-rule:evenodd"/><path d="m214.7 508.5-6.9 2 .9 2q1.6 2.8 3 1.4a5.7 5.7 0 0 1 3.6-2Z" style="fill:url(#linear-gradient1-82);fill-rule:evenodd"/></g></svg>